<svg xmlns="http://www.w3.org/2000/svg" width="381" height="349" viewBox="0 0 381 349">
    <defs>
        <linearGradient id="prefix__a" x1="50.236%" x2="51.73%" y1="52.753%" y2="70.661%">
            <stop offset="0%" stop-color="#010101" stop-opacity="0"/>
            <stop offset="95%" stop-color="#010101"/>
        </linearGradient>
        <linearGradient id="prefix__b" x1="14.761%" x2="217.048%" y1="-72.323%" y2="630.325%">
            <stop offset="0%" stop-color="#010101" stop-opacity="0"/>
            <stop offset="95%" stop-color="#010101"/>
        </linearGradient>
        <linearGradient id="prefix__c" x1="14.761%" x2="217.048%" y1="-72.443%" y2="630.205%">
            <stop offset="0%" stop-color="#010101" stop-opacity="0"/>
            <stop offset="95%" stop-color="#010101"/>
        </linearGradient>
        <linearGradient id="prefix__d" x1="14.761%" x2="217.152%" y1="-72.323%" y2="630.325%">
            <stop offset="0%" stop-color="#010101" stop-opacity="0"/>
            <stop offset="95%" stop-color="#010101"/>
        </linearGradient>
        <linearGradient id="prefix__e" x1="14.761%" x2="217.152%" y1="-72.443%" y2="630.205%">
            <stop offset="0%" stop-color="#010101" stop-opacity="0"/>
            <stop offset="95%" stop-color="#010101"/>
        </linearGradient>
        <linearGradient id="prefix__f" x1="14.865%" x2="217.152%" y1="-72.323%" y2="630.325%">
            <stop offset="0%" stop-color="#010101" stop-opacity="0"/>
            <stop offset="95%" stop-color="#010101"/>
        </linearGradient>
        <linearGradient id="prefix__g" x1="14.865%" x2="217.152%" y1="-72.443%" y2="630.205%">
            <stop offset="0%" stop-color="#010101" stop-opacity="0"/>
            <stop offset="95%" stop-color="#010101"/>
        </linearGradient>
        <linearGradient id="prefix__h" x1="50.146%" x2="49.468%" y1="47.398%" y2="59.948%">
            <stop offset="0%" stop-color="#010101" stop-opacity="0"/>
            <stop offset="95%" stop-color="#010101"/>
        </linearGradient>
        <linearGradient id="prefix__i" x1="-.089%" x2="99.884%" y1="49.934%" y2="49.934%">
            <stop offset="0%" stop-color="#E5C6D6"/>
            <stop offset="42%" stop-color="#EAD4D0"/>
            <stop offset="100%" stop-color="#F0E9CB"/>
        </linearGradient>
        <linearGradient id="prefix__j" x1="-.002%" x2="99.959%" y1="50.02%" y2="50.02%">
            <stop offset="0%" stop-color="#E5C6D6"/>
            <stop offset="42%" stop-color="#EAD4D0"/>
            <stop offset="100%" stop-color="#F0E9CB"/>
        </linearGradient>
        <linearGradient id="prefix__k" x1="53.652%" x2="48.348%" y1="32.079%" y2="58.095%">
            <stop offset="0%" stop-color="#FFF" stop-opacity="0"/>
            <stop offset="99%" stop-color="#FFF"/>
        </linearGradient>
        <linearGradient id="prefix__l" x1="261.809%" x2="253.579%" y1="127.636%" y2="77.666%">
            <stop offset="0%" stop-color="#FFF" stop-opacity="0"/>
            <stop offset="99%" stop-color="#FFF"/>
        </linearGradient>
        <linearGradient id="prefix__m" x1="119.262%" x2="116.509%" y1="58.304%" y2="52.875%">
            <stop offset="0%" stop-color="#FFF" stop-opacity="0"/>
            <stop offset="99%" stop-color="#FFF"/>
        </linearGradient>
        <linearGradient id="prefix__n" x1="213.735%" x2="207.751%" y1="94.457%" y2="65.923%">
            <stop offset="0%" stop-color="#FFF" stop-opacity="0"/>
            <stop offset="99%" stop-color="#FFF"/>
        </linearGradient>
        <linearGradient id="prefix__o" x1="193.989%" x2="189.056%" y1="83.872%" y2="62.13%">
            <stop offset="0%" stop-color="#FFF" stop-opacity="0"/>
            <stop offset="99%" stop-color="#FFF"/>
        </linearGradient>
        <linearGradient id="prefix__p" x1="221.177%" x2="215.388%" y1="95.407%" y2="66.164%">
            <stop offset="0%" stop-color="#FFF" stop-opacity="0"/>
            <stop offset="99%" stop-color="#FFF"/>
        </linearGradient>
        <linearGradient id="prefix__q" x1="242.881%" x2="236.762%" y1="88.576%" y2="63.908%">
            <stop offset="0%" stop-color="#FFF" stop-opacity="0"/>
            <stop offset="99%" stop-color="#FFF"/>
        </linearGradient>
        <linearGradient id="prefix__r" x1="143.809%" x2="140.771%" y1="64.545%" y2="55.097%">
            <stop offset="0%" stop-color="#FFF" stop-opacity="0"/>
            <stop offset="99%" stop-color="#FFF"/>
        </linearGradient>
        <linearGradient id="prefix__s" x1="204.3%" x2="199.76%" y1="69.636%" y2="54.539%">
            <stop offset="0%" stop-color="#FFF" stop-opacity="0"/>
            <stop offset="99%" stop-color="#FFF"/>
        </linearGradient>
        <linearGradient id="prefix__t" x1="307.875%" x2="300.859%" y1="107.591%" y2="63.406%">
            <stop offset="0%" stop-color="#FFF" stop-opacity="0"/>
            <stop offset="99%" stop-color="#FFF"/>
        </linearGradient>
        <linearGradient id="prefix__u" x1="133.97%" x2="131.529%" y1="56.248%" y2="51.292%">
            <stop offset="0%" stop-color="#FFF" stop-opacity="0"/>
            <stop offset="99%" stop-color="#FFF"/>
        </linearGradient>
        <linearGradient id="prefix__v" x1="247.198%" x2="242.053%" y1="80.783%" y2="56.757%">
            <stop offset="0%" stop-color="#FFF" stop-opacity="0"/>
            <stop offset="99%" stop-color="#FFF"/>
        </linearGradient>
        <linearGradient id="prefix__w" x1="222.148%" x2="217.848%" y1="74.112%" y2="54.943%">
            <stop offset="0%" stop-color="#FFF" stop-opacity="0"/>
            <stop offset="99%" stop-color="#FFF"/>
        </linearGradient>
        <linearGradient id="prefix__x" x1="254.74%" x2="249.716%" y1="80.084%" y2="56.124%">
            <stop offset="0%" stop-color="#FFF" stop-opacity="0"/>
            <stop offset="99%" stop-color="#FFF"/>
        </linearGradient>
        <linearGradient id="prefix__y" x1="279.328%" x2="274.007%" y1="69.568%" y2="53.832%">
            <stop offset="0%" stop-color="#FFF" stop-opacity="0"/>
            <stop offset="99%" stop-color="#FFF"/>
        </linearGradient>
        <linearGradient id="prefix__z" x1="161.527%" x2="158.817%" y1="54.294%" y2="50.77%">
            <stop offset="0%" stop-color="#FFF" stop-opacity="0"/>
            <stop offset="99%" stop-color="#FFF"/>
        </linearGradient>
        <linearGradient id="prefix__A" x1="232.634%" x2="228.618%" y1="59.419%" y2="49.517%">
            <stop offset="0%" stop-color="#FFF" stop-opacity="0"/>
            <stop offset="99%" stop-color="#FFF"/>
        </linearGradient>
        <linearGradient id="prefix__B" x1="354.073%" x2="347.895%" y1="77.164%" y2="47.952%">
            <stop offset="0%" stop-color="#FFF" stop-opacity="0"/>
            <stop offset="99%" stop-color="#FFF"/>
        </linearGradient>
        <linearGradient id="prefix__C" x1="148.734%" x2="146.51%" y1="52.974%" y2="49.678%">
            <stop offset="0%" stop-color="#FFF" stop-opacity="0"/>
            <stop offset="99%" stop-color="#FFF"/>
        </linearGradient>
        <linearGradient id="prefix__D" x1="280.959%" x2="276.372%" y1="64.481%" y2="48.213%">
            <stop offset="0%" stop-color="#FFF" stop-opacity="0"/>
            <stop offset="99%" stop-color="#FFF"/>
        </linearGradient>
        <linearGradient id="prefix__E" x1="250.414%" x2="246.568%" y1="60.071%" y2="48.237%">
            <stop offset="0%" stop-color="#FFF" stop-opacity="0"/>
            <stop offset="99%" stop-color="#FFF"/>
        </linearGradient>
        <linearGradient id="prefix__F" x1="288.478%" x2="284.034%" y1="63.114%" y2="47.577%">
            <stop offset="0%" stop-color="#FFF" stop-opacity="0"/>
            <stop offset="99%" stop-color="#FFF"/>
        </linearGradient>
        <linearGradient id="prefix__G" x1="315.93%" x2="311.184%" y1="68.309%" y2="45.779%">
            <stop offset="0%" stop-color="#FFF" stop-opacity="0"/>
            <stop offset="99%" stop-color="#FFF"/>
        </linearGradient>
        <linearGradient id="prefix__H" x1="179.302%" x2="176.838%" y1="54.244%" y2="48.991%">
            <stop offset="0%" stop-color="#FFF" stop-opacity="0"/>
            <stop offset="99%" stop-color="#FFF"/>
        </linearGradient>
    </defs>
    <g fill="none">
        <path fill="#00AEEE" d="M315.344 288.156c-11.322 4.344-23.287 7-34.386 11.876-18.12 8.002-33.144 21.6-50.286 31.513-7.394 4.29-15.209 7.809-23.321 10.505-8.013 2.663-16.266 4.546-24.642 5.62-11.12 1.438-22.36 1.71-33.537.815-10.766-.828-21.455-2.458-31.978-4.876-15.85-3.654-31.408-8.47-46.549-14.411-46.986-18.096-77.66-111.883-57.185-156.223 9.017-19.553 26.655-33.579 39.366-50.955 23.57-32.25 30.658-76.54 61.59-101.84 20.04-16.383 47.32-21.798 73.11-19.776 25.79 2.022 50.517 10.881 74.567 20.443 11.605 4.602 23.364 9.528 32.75 17.788 16.541 14.514 23.235 36.843 33.692 56.215 17.099 31.703 46.017 58.324 51.588 93.839 6.591 42.275-24.847 84.105-64.779 99.467z" opacity=".24"/>
        <path fill="#00AEEE" d="M116 238H241V286H116z"/>
        <path fill="url(#prefix__a)" d="M116 238H241V286H116z"/>
        <path fill="#00AEEE" d="M116 235H241V283H116z"/>
        <path fill="url(#prefix__b)" d="M121 242H129V250H121zM121 251H129V259H121zM121 259H129V267H121z"/>
        <path fill="url(#prefix__c)" d="M121 268H129V276H121z"/>
        <path fill="url(#prefix__d)" d="M131 242H139V250H131zM131 251H139V259H131zM131 259H139V267H131z"/>
        <path fill="url(#prefix__e)" d="M131 268H139V276H131z"/>
        <path fill="url(#prefix__b)" d="M142 242H150V250H142zM142 251H150V259H142zM142 259H150V267H142z"/>
        <path fill="url(#prefix__c)" d="M142 268H150V276H142z"/>
        <path fill="url(#prefix__d)" d="M153 242H161V250H153zM153 251H161V259H153zM153 259H161V267H153z"/>
        <path fill="url(#prefix__b)" d="M164 242H172V250H164zM164 251H172V259H164zM164 259H172V267H164z"/>
        <path fill="url(#prefix__d)" d="M174 242H182V250H174zM174 251H182V259H174zM174 259H182V267H174z"/>
        <path fill="url(#prefix__b)" d="M186 242H194V250H186zM186 251H194V259H186zM186 259H194V267H186z"/>
        <path fill="url(#prefix__d)" d="M197 242H205V250H197zM197 251H205V259H197zM197 259H205V267H197z"/>
        <path fill="url(#prefix__f)" d="M207 242H215V250H207zM207 251H215V259H207zM207 259H215V267H207z"/>
        <path fill="url(#prefix__g)" d="M207 268H215V276H207z"/>
        <path fill="url(#prefix__b)" d="M218 242H226V250H218zM218 251H226V259H218zM218 259H226V267H218z"/>
        <path fill="url(#prefix__c)" d="M218 268H226V276H218z"/>
        <path fill="url(#prefix__d)" d="M229 242H237V250H229zM229 251H237V259H229zM229 259H237V267H229z"/>
        <path fill="url(#prefix__e)" d="M229 268H237V276H229z"/>
        <path fill="url(#prefix__h)" d="M140 269H205V276H140z"/>
        <path fill="url(#prefix__i)" d="M133.39 269.372c.224-.952.86-2.145 1.824-1.836.507.163.757.72.946 1.218.525 1.365 2.58 3.235 3.08 4.608.094-3.432.223-12.116 2.288-17.085.223-.531.775-.848 1.347-.774.573.074 1.025.521 1.105 1.092.8 5.646 1.325 14.785 1.652 12.914.421-2.36 1.72-21.298 5.273-19.136 1.118 3.364.327 16.382-.095 19.9.947-4.66 2.727-23.092 6.306-21.127 2.263 5.887-2.426 20.947-.275 26.877.396 1.09 1.247 2.256 2.417 2.17 1.17-.085 1.781-1.32 1.85-2.428.069-1.107-.241-2.214-.155-3.32 0-.613.328-1.18.86-1.485 1.033-.447 1.91.858 2.203 1.965 1.395 5.19 1.305 10.665-.259 15.806-1.634 5.364-4.808 10.11-7.931 14.769-.405.69-.936 1.298-1.566 1.793-.332.22-.694.39-1.075.507-2.686.887-5.509 1.288-8.336 1.184-12.19-.67-11.08-8.504-12.044-15.206-1.243-7.437-1.045-15.043.585-22.406z"/>
        <path fill="#FFF" d="M133.57 306.758c.477-1.086 1.33-1.965 2.4-2.478.632-.2 1.293-.29 1.955-.265 5.455-.107 10.906.347 16.268 1.355.518.04 1.003.266 1.366.637.186.292.292.628.306.975.332 2.666.049 5.374-.828 7.915-.088.384-.311.724-.629.958-.347.15-.733.185-1.1.1-5.525-.625-11.082-.929-16.642-.91-5.596-.024-5.522-3.858-3.096-8.287z"/>
        <path fill="#00AEEE" d="M154.987 349c-11.334-.867-22.586-2.573-33.664-5.103-.338-1.1-.412-2.265-.216-3.399 1.386-8.537 4.323-16.754 8.667-24.25.37-.793.974-1.457 1.733-1.9.596-.254 1.243-.363 1.89-.32 7.126-.164 14.252.38 21.269 1.627 1.048.05 2.033.51 2.739 1.282.375.647.553 1.389.511 2.134.393 10.062-.593 20.13-2.93 29.929z"/>
        <path fill="url(#prefix__j)" d="M179.49 303.198c-.465-.855-.818-2.061 0-2.566.403-.214.875-.266 1.316-.145 1.604.26 3.128.877 4.458 1.804 2.057 1.429 4.304 3.712 6.61 2.686 1.997-.898 2.169-3.6 2.04-5.781-.436-7.298-.878-14.598-1.326-21.9 0-.728 0-1.617.637-1.968.973-.521 1.92.719 2.324 1.71l5.267 13.256c1.007-3.19-.164-14.145.327-19.01.063-.647.559-1.168 1.204-1.267.646-.1 1.277.25 1.533.847 1.592 3.806 3.322 13.683 3.623 16.026.86 6.978 1.3.855 1.558-.316.62-2.908-.19-12.828 1.575-13.589 2.581.188 3.442 3.523 3.502 6.106.06 2.583-1.3 12.588 1.231 13.187 1.119-2.788 1.033-7.86 2.539-8.048 2.358 1.078.275 11.742-.474 14.213-2.237 7.406-.8 6.431-3.029 13.828-.433 1.86-1.254 3.607-2.41 5.131-1.467 1.48-3.336 2.505-5.379 2.95-12.427 3.438-21.747-7.474-27.126-17.154z"/>
        <path fill="#FFF" d="M195.482 330.71c-.003.661.283 1.291.786 1.73.305.163.643.257.989.278 5.2.612 10.47.227 15.52-1.133.54-.097 1.042-.333 1.457-.684.389-.445.624-.999.67-1.583.495-3.347-1.023-6.626-2.507-9.679-.083-.22-.23-.413-.423-.554-.245-.096-.514-.111-.768-.043-2.472.398-4.959.686-7.46.865-1.819.121-4.803-.45-6.49.234-3.301 1.34-2.1 7.638-1.774 10.57z"/>
        <path fill="#00AEEE" d="M217 341.103c-8.131 2.791-16.503 4.766-25 5.897.108-3.448.208-7.017.492-10.474.233-2.948 3.058-8.759 6.525-8.759 3.475-1.551 7.383-1.664 11.158-1.767 1.325 0 2.8 0 3.808.905 1.009.905 1.192 2.198 1.4 3.448.6 3.544 1.2 7.138 1.617 10.75z"/>
        <path fill="#00AEEE" d="M272.998 211L66.002 211 10 94 343 94z" opacity=".52"/>
        <path fill="#FFF" d="M112.724 198H30.895c-4.759 0-9.854-2.592-11.389-5.798l-14.07-29.404C3.909 159.592 6.522 157 11.272 157H93.11c4.75 0 9.846 2.592 11.38 5.798l14.071 29.379c1.535 3.206-1.077 5.823-5.836 5.823z" opacity=".27"/>
        <path fill="#FFF" d="M107.71 206H25.879c-4.75 0-9.854-2.592-11.38-5.798L.43 170.823C-1.078 167.617 1.508 165 6.267 165h81.822c4.76 0 9.854 2.6 11.389 5.807l14.104 29.395c1.491 3.206-1.12 5.798-5.871 5.798z"/>
        <path fill="#FFF" d="M257.285 172h81.827c4.759 0 9.854-2.601 11.388-5.8l14.06-29.4c1.535-3.199-1.077-5.8-5.827-5.8h-81.827c-4.75 0-9.854 2.601-11.388 5.8l-14.095 29.4c-1.5 3.199 1.112 5.8 5.862 5.8z" opacity=".27"/>
        <path fill="#FFF" d="M257.285 182h81.827c4.759 0 9.854-2.601 11.388-5.809l14.06-29.39c1.535-3.2-1.077-5.801-5.827-5.801h-81.827c-4.75 0-9.854 2.601-11.388 5.8l-14.095 29.391c-1.5 3.208 1.112 5.809 5.862 5.809z"/>
        <path fill="url(#prefix__k)" d="M88 116L149.311 116 150 121 90.023 121z"/>
        <path fill="url(#prefix__l)" d="M92 124L127.948 124 129 128 93.751 128z"/>
        <path fill="url(#prefix__m)" d="M142 124L255 124 253.527 128 142.767 128z"/>
        <path fill="url(#prefix__n)" d="M113 133L160.602 133 161 137 114.35 137z"/>
        <path fill="url(#prefix__o)" d="M131 139L186 139 185.913 143 131.986 143z"/>
        <path fill="url(#prefix__p)" d="M188.161 139L233 139 231.88 143 188 143z"/>
        <path fill="url(#prefix__q)" d="M133 146L172.856 146 173 149 133.841 149z"/>
        <path fill="url(#prefix__r)" d="M177 146L260 146 258.465 150 177.086 150z"/>
        <path fill="url(#prefix__s)" d="M105 154L154.546 154 155 157 106.336 157z"/>
        <path fill="url(#prefix__t)" d="M108 159L137.296 159 138 162 109.168 162z"/>
        <path fill="url(#prefix__u)" d="M150 159L242 159 241.014 162 150.514 162z"/>
        <path fill="url(#prefix__v)" d="M125 165L164.72 165 165 168 125.928 168z"/>
        <path fill="url(#prefix__w)" d="M139 169L184 169 183.948 172 139.679 172z"/>
        <path fill="url(#prefix__x)" d="M187.112 169L225 169 224.214 172 187 172z"/>
        <path fill="url(#prefix__y)" d="M140 174L173.896 174 174 176 140.597 176z"/>
        <path fill="url(#prefix__z)" d="M177 174L247 174 245.917 176 177.061 176z"/>
        <path fill="url(#prefix__A)" d="M118 180L159.683 180 160 182 118.95 182z"/>
        <path fill="url(#prefix__B)" d="M120 183L144.499 183 145 185 120.84 185z"/>
        <path fill="url(#prefix__C)" d="M154 183L232 183 231.287 185 154.369 185z"/>
        <path fill="url(#prefix__D)" d="M134 187L166.804 187 167 189 134.655 189z"/>
        <path fill="url(#prefix__E)" d="M145 191L184 191 183.956 193 145.497 193z"/>
        <path fill="url(#prefix__F)" d="M186.077 191L218 191 217.429 193 186 193z"/>
        <path fill="url(#prefix__G)" d="M146 194L174.923 194 175 196 146.439 196z"/>
        <path fill="url(#prefix__H)" d="M178 194L237 194 236.218 196 178.043 196z"/>
        <g fill="#00AEEE" opacity=".52">
            <path d="M.162.319L31.398.319 31.748 1.989 1.196 1.989zM2.119 3.487L20.394 3.487 20.932 4.934 3.016 4.934zM27.767 3.487L85.292 3.487 84.54 4.943 28.16 4.943zM13.046 6.415L37.182 6.415 37.387 7.819 13.73 7.819zM21.812 9.111L49.468 9.111 49.425 10.419 22.308 10.419zM51.271 9.111L74.45 9.111 73.869 10.566 51.185 10.566zM22.718 11.608L43.282 11.608 43.359 12.753 23.153 12.753zM45.256 11.608L87.692 11.608 86.915 12.874 45.299 12.874zM9.039 14.708L34.405 14.708 34.645 15.819 9.723 15.819zM10.338 16.817L25.298 16.817 25.657 17.791 10.944 17.791zM31.338 16.817L78.414 16.817 77.91 17.791 31.595 17.791zM19.078 18.781L38.976 18.781 39.113 19.745 19.548 19.745zM26.169 20.632L49.118 20.632 49.092 21.536 26.511 21.536zM50.613 20.632L69.853 20.632 69.452 21.64 50.553 21.64zM26.784 22.363L43.966 22.363 44.017 23.164 27.092 23.164zM45.615 22.363L81.063 22.363 80.507 23.25 45.64 23.25zM15.114 24.542L36.464 24.542 36.635 25.334 15.592 25.334zM16.037 26.049L28.698 26.049 28.955 26.746 16.472 26.746zM33.807 26.049L73.647 26.049 73.288 26.746 33.995 26.746zM23.316 27.461L40.232 27.461 40.335 28.158 23.649 28.158zM29.254 28.804L48.87 28.804 48.844 29.467 29.501 29.467zM50.151 28.804L66.59 28.804 66.299 29.545 50.109 29.545zM29.706 30.079L44.453 30.079 44.487 30.673 29.929 30.673zM45.871 30.079L76.295 30.079 75.894 30.733 45.888 30.733z" transform="translate(8 172)"/>
        </g>
        <g fill="#00AEEE" opacity=".52">
            <path d="M2.489.109L28.203.109 27.493 1.501 2.344 1.501zM2.207 2.759L17.254 2.759 16.826 3.967 2.079 3.967zM23.319 2.759L70.658 2.759 69.169 3.975 22.771 3.975zM9.452 5.2L29.315 5.2 28.64 6.374 9.179 6.374zM15.055 7.448L37.818 7.448 36.997 8.546 14.679 8.546zM39.298 7.448L58.374 7.448 57.031 8.664 38.366 8.664zM14.311 9.536L31.231 9.536 30.607 10.492 13.978 10.492zM32.857 9.536L67.792 9.536 66.389 10.593 32.138 10.593zM1.198 12.119L22.078 12.119 21.608 13.05 1.095 13.05zM1.009 13.881L13.319 13.881 13.037 14.694.924 14.694zM18.289 13.881L57.031 13.881 56.03 14.694 17.921 14.694zM7.023 15.525L23.396 15.525 22.942 16.33 6.835 16.33zM11.753 17.068L30.641 17.068 30.077 17.823 11.488 17.823zM31.873 17.068L47.707 17.068 46.774 17.906 31.223 17.906zM11.223 18.51L25.363 18.51 24.927 19.181 11.001 19.181zM26.723 18.51L55.893 18.51 54.918 19.257 26.219 19.257zM.317 20.33L17.895 20.33 17.553 20.993.24 20.993zM.18 21.588L10.599 21.588 10.393 22.167.12 22.167zM14.807 21.588L47.596 21.588 46.877 22.175 14.542 22.175zM5.321 22.771L19.247 22.771 18.913 23.35 5.184 23.35zM9.41 23.895L25.551 23.895 25.141 24.448 9.213 24.448zM26.604 23.895L40.136 23.895 39.461 24.507 26.133 24.507zM9.016 24.952L21.155 24.952 20.83 25.446 8.845 25.446zM22.318 24.952L47.365 24.952 46.646 25.505 21.95 25.505z" transform="translate(281 151)"/>
        </g>
    </g>
</svg>
