<svg xmlns="http://www.w3.org/2000/svg" width="318" height="349" viewBox="0 0 318 349">
    <defs>
        <linearGradient id="prefix__a" x1="49.682%" x2="54.68%" y1="51.671%" y2="167.056%">
            <stop offset="0%" stop-opacity="0"/>
            <stop offset="95%"/>
        </linearGradient>
        <linearGradient id="prefix__b" x1="49.924%" x2="50.267%" y1="45.201%" y2="64.24%">
            <stop offset="0%" stop-opacity="0"/>
            <stop offset="99%"/>
        </linearGradient>
        <linearGradient id="prefix__c" x1="51.482%" x2="-152.405%" y1="44.298%" y2="116.999%">
            <stop offset="0%" stop-opacity="0"/>
            <stop offset="95%"/>
        </linearGradient>
        <linearGradient id="prefix__d" x1="65.443%" x2="-152.715%" y1="41.418%" y2="137.044%">
            <stop offset="0%" stop-opacity="0"/>
            <stop offset="95%"/>
        </linearGradient>
        <linearGradient id="prefix__e" x1="50.002%" x2="50.002%" y1="230.435%" y2="-177.425%">
            <stop offset="0%" stop-opacity="0"/>
            <stop offset="95%"/>
        </linearGradient>
    </defs>
    <g fill="none">
        <path fill="#00AEEE" d="M285.835 62.856c-2.092-28.244-23.965-53.9-51.47-60.366-24.835-5.843-50.815 2.85-76.25.907-9.87-.765-19.608-3.124-29.51-3.386-22.065-.388-43.058 9.523-56.817 26.824-15.85 20.26-26.764 45.38-29.455 70.97-8.246 78.54-37.406 98.178-40.947 120.59-13.55 86.457 74.988 126.869 145.378 130.418 64.182 3.277 149.953-37.451 160.726-51.256 15.599-19.998 11.067-70.163 4.074-94.551-5.599-19.529-14.28-39.013-15.925-59.46-1.373-16.961.228-26.955-6.438-43.752-4.64-11.72-2.462-24.662-3.366-36.938z" opacity=".24"/>
        <path fill="#00AEEE" d="M62.278 278c-10.056 0-37.257-1.672-39.942-19.688-3.164-21.22 16.666-34.088 32.614-44.436 14.46-9.383 13.525-39.333 13.514-39.637l6.523-.239c0 1.38 1.087 33.914-16.449 45.294-15.144 9.828-32.288 20.959-29.745 38.062 1.968 13.173 27.256 14.65 36.844 14.118l.37 6.45c-.348.01-1.685.076-3.73.076z"/>
        <path fill="#00AEEE" d="M49.06 270.623c-4.123 1.951-8.616 3.252-12.204 6.08-4.357 3.455-6.88 8.703-6.85 14.242-.071 1.722.427 3.42 1.419 4.834 1.745 2.168 4.864 2.482 7.634 2.645 81.464 4.572 163.117 4.76 244.602.564 3.708-.185 7.492-.401 10.906-1.789 3.413-1.387 6.543-4.162 7.263-7.782 1.222-6.102-4.362-11.337-9.663-14.632-5.3-3.295-11.517-6.828-12.738-12.92-.96-4.747 1.221-10.621-2.323-13.938-.97-.815-2.078-1.453-3.272-1.886-37.473-15.954-78.404-26.858-118.876-21.785-16.36 2.048-32.26 6.676-47.66 12.41-7.83 2.915-15.54 6.124-23.197 9.462-5.857 2.547-13.414 4.509-17.69 9.31-5.365 6.091-9.706 11.565-17.351 15.185z" opacity=".24"/>
        <path fill="#00AEEE" d="M292 130.403C292 153.93 273.012 173 249.59 173H90.983c-22.851-.231-41.411-18.605-41.971-41.55-.56-22.946 17.082-42.212 39.894-43.567 3.418-19.633 20.392-33.957 40.236-33.957h5.437c9.479.01 18.66 3.322 25.98 9.372 8.606-22.059 31.626-34.842 54.802-30.432 23.176 4.409 39.947 24.761 39.926 48.453.027 2.296-.166 4.59-.577 6.848 21.267 2.599 37.265 20.72 37.289 42.236z"/>
        <path fill="url(#prefix__a)" d="M292 130.403C292 153.93 273.012 173 249.59 173H90.983c-22.851-.231-41.411-18.605-41.971-41.55-.56-22.946 17.082-42.212 39.894-43.567 3.418-19.633 20.392-33.957 40.236-33.957h5.437c9.479.01 18.66 3.322 25.98 9.372 8.606-22.059 31.626-34.842 54.802-30.432 23.176 4.409 39.947 24.761 39.926 48.453.027 2.296-.166 4.59-.577 6.848 21.267 2.599 37.265 20.72 37.289 42.236z"/>
        <path fill="#FFF" d="M292 118.198c-.005 10.909-4.466 21.338-12.343 28.86-8.017 7.708-18.707 11.99-29.814 11.942H92.222C68.907 159 50 140.782 50 118.198c.03-10.89 4.488-21.296 12.343-28.816 7.512-7.232 17.405-11.457 27.81-11.876 1.448-8.017 5.396-15.367 11.277-20.99 7.704-7.426 17.985-11.559 28.67-11.526h5.443c9.368-.009 18.465 3.152 25.819 8.972C168.393 36.422 186.015 24 206.696 24c26.962 0 48.786 21.121 48.786 47.22.025 2.196-.165 4.39-.566 6.548C275.814 80.192 292 97.383 292 118.198z"/>
        <path fill="url(#prefix__b)" d="M73.438 127.304c13.694-5.88 40.866-8.315 55.783-8.304l89.612.12c12.211 0 24.706.076 36.218 4.14 11.513 4.065 38.597 13.043 33.26 23.999-7.518 15.379-23.035 23.4-29.102 26.16-8.272 3.772-17.711 3.685-26.801 3.522l-113.39-2.032c-5.84.036-11.676-.356-17.46-1.174-4.499-.848-8.944-1.959-13.312-3.326-6.857-1.815-13.586-4.077-20.145-6.771-7.256-3.185-15.812-8.25-13.804-16.064 3.012-11.575 8.348-15.597 19.14-20.27z"/>
        <path fill="url(#prefix__c)" d="M161 53.52L172.01 65s6.852-41.429 49.99-38.572c.01 0-40.584-14.435-61 27.092z"/>
        <path fill="url(#prefix__d)" d="M90 76.815s7.829-.864 15.28 8.185c0 0 1.61-36.595 32.72-37.2 0 0-12.749-8.13-30.504 3.316C91.59 61.374 90 76.816 90 76.816z"/>
        <rect width="204" height="147" x="69" y="136" fill="#00AEEE" rx="12.9"/>
        <rect width="194" height="130" x="73" y="143" fill="#FFF" rx="11.82"/>
        <rect width="228" height="21" x="55" y="275" fill="#00AEEE" rx="9.68"/>
        <rect width="228" height="13" x="55" y="277" fill="url(#prefix__e)" rx="5.98"/>
        <path fill="#00AEEE" d="M84 229H93V269H84zM97 238H106V269H97zM111 211H120V269H111zM123 223H132V269H123zM137 232H146V269H137zM150 212H159V269H150zM162 238H171V269H162zM176 217H185V269H176zM189 228H198V269H189zM202 210H211V269H202zM215 224H224V269H215zM228 208H237V269H228zM241 194H250V269H241zM82 156H118V163H82zM123 156H131V163H123zM82 178H90V185H82zM82 168H118V175H82zM140 284H196V290H140z"/>
    </g>
</svg>
