<svg xmlns="http://www.w3.org/2000/svg" width="163" height="178" viewBox="0 0 163 178">
    <defs>
        <linearGradient id="prefix__a" x1="49.8%" x2="54.787%" y1="51.574%" y2="160.416%">
            <stop offset="0%" stop-opacity="0"/>
            <stop offset="95%"/>
        </linearGradient>
        <linearGradient id="prefix__b" x1="68.865%" x2="26.962%" y1="-40.439%" y2="160.606%">
            <stop offset="0%" stop-opacity="0"/>
            <stop offset="95%"/>
        </linearGradient>
        <linearGradient id="prefix__c" x1="68.865%" x2="26.933%" y1="-40.439%" y2="160.606%">
            <stop offset="0%" stop-opacity="0"/>
            <stop offset="95%"/>
        </linearGradient>
        <linearGradient id="prefix__d" x1="68.865%" x2="26.962%" y1="-40.387%" y2="160.606%">
            <stop offset="0%" stop-opacity="0"/>
            <stop offset="95%"/>
        </linearGradient>
        <linearGradient id="prefix__e" x1="68.865%" x2="26.933%" y1="-40.387%" y2="160.606%">
            <stop offset="0%" stop-opacity="0"/>
            <stop offset="95%"/>
        </linearGradient>
        <linearGradient id="prefix__f" x1="51.47%" x2="-152.385%" y1="45.075%" y2="107.942%">
            <stop offset="0%" stop-opacity="0"/>
            <stop offset="95%"/>
        </linearGradient>
        <linearGradient id="prefix__g" x1="65.445%" x2="-152.727%" y1="42.091%" y2="130.24%">
            <stop offset="0%" stop-opacity="0"/>
            <stop offset="95%"/>
        </linearGradient>
        <linearGradient id="prefix__h" x1="46.265%" x2="52.972%" y1="176.451%" y2="-50.151%">
            <stop offset="0%" stop-opacity="0"/>
            <stop offset="95%"/>
        </linearGradient>
        <linearGradient id="prefix__i" x1="46.671%" x2="53.378%" y1="162.55%" y2="-64.052%">
            <stop offset="0%" stop-opacity="0"/>
            <stop offset="95%"/>
        </linearGradient>
        <linearGradient id="prefix__j" x1="47.078%" x2="53.785%" y1="148.792%" y2="-77.806%">
            <stop offset="0%" stop-opacity="0"/>
            <stop offset="95%"/>
        </linearGradient>
        <linearGradient id="prefix__k" x1="46.245%" x2="52.952%" y1="176.818%" y2="-49.784%">
            <stop offset="0%" stop-opacity="0"/>
            <stop offset="95%"/>
        </linearGradient>
        <linearGradient id="prefix__l" x1="46.661%" x2="53.368%" y1="162.916%" y2="-63.683%">
            <stop offset="0%" stop-opacity="0"/>
            <stop offset="95%"/>
        </linearGradient>
        <linearGradient id="prefix__m" x1="47.068%" x2="53.775%" y1="149.162%" y2="-77.44%">
            <stop offset="0%" stop-opacity="0"/>
            <stop offset="95%"/>
        </linearGradient>
        <linearGradient id="prefix__n" x1="50.119%" x2="49.564%" y1="43.922%" y2="75.413%">
            <stop offset="0%" stop-opacity="0"/>
            <stop offset="95%"/>
        </linearGradient>
        <linearGradient id="prefix__o" x1="50.141%" x2="49.586%" y1="43.922%" y2="75.413%">
            <stop offset="0%" stop-opacity="0"/>
            <stop offset="95%"/>
        </linearGradient>
        <linearGradient id="prefix__p" x1="50.119%" x2="49.564%" y1="43.923%" y2="75.396%">
            <stop offset="0%" stop-opacity="0"/>
            <stop offset="95%"/>
        </linearGradient>
        <linearGradient id="prefix__q" x1="50.141%" x2="49.586%" y1="43.923%" y2="75.396%">
            <stop offset="0%" stop-opacity="0"/>
            <stop offset="95%"/>
        </linearGradient>
        <linearGradient id="prefix__r" x1="50.119%" x2="49.564%" y1="43.922%" y2="75.411%">
            <stop offset="0%" stop-opacity="0"/>
            <stop offset="95%"/>
        </linearGradient>
        <linearGradient id="prefix__s" x1="50.141%" x2="49.586%" y1="43.922%" y2="75.411%">
            <stop offset="0%" stop-opacity="0"/>
            <stop offset="95%"/>
        </linearGradient>
    </defs>
    <g fill="none">
        <path fill="#00AEEE" d="M146.512 32.059c-1.069-14.408-12.28-27.494-26.381-30.788-12.74-2.979-26.033 1.454-39.083.459C75.98 1.338 70.995.133 65.916.006c-11.31-.2-22.069 4.857-29.118 13.683-8.12 10.329-13.686 23.128-15.093 36.187C17.473 89.942 2.512 99.956.712 111.385c-6.957 44.112 38.462 64.703 74.52 66.521 32.896 1.658 76.858-19.1 82.38-26.145 7.998-10.197 5.672-35.784 2.088-48.224-2.869-9.947-7.316-19.895-8.164-30.329-.703-8.648.116-13.75-3.296-22.315-2.381-5.98-1.262-12.584-1.728-18.834z" opacity=".24"/>
        <path fill="#00AEEE" d="M150 66.54c.003 5.692-2.307 11.151-6.422 15.176S133.882 88 128.062 88H46.025c-11.94.049-21.725-9.25-22.018-20.921-.293-11.672 9.014-21.43 20.94-21.954 1.77-9.877 10.535-17.087 20.789-17.098h2.818c4.904.004 9.655 1.67 13.444 4.715 4.46-11.097 16.359-17.524 28.338-15.306 11.98 2.217 20.653 12.453 20.656 24.377.014 1.156-.085 2.311-.296 3.449C141.708 46.559 149.995 55.694 150 66.54z"/>
        <path fill="url(#prefix__a)" d="M150 66.54c.003 5.692-2.307 11.151-6.422 15.176S133.882 88 128.062 88H46.025c-11.94.049-21.725-9.25-22.018-20.921-.293-11.672 9.014-21.43 20.94-21.954 1.77-9.877 10.535-17.087 20.789-17.098h2.818c4.904.004 9.655 1.67 13.444 4.715 4.46-11.097 16.359-17.524 28.338-15.306 11.98 2.217 20.653 12.453 20.656 24.377.014 1.156-.085 2.311-.296 3.449C141.708 46.559 149.995 55.694 150 66.54z"/>
        <path fill="#FFF" d="M149 61.164c-.002 5.574-2.306 10.904-6.374 14.748-4.143 3.934-9.664 6.116-15.398 6.088H45.806C33.766 82 24 72.686 24 61.147c.01-5.573 2.312-10.9 6.374-14.748 3.88-3.702 8.99-5.867 14.366-6.088.759-4.087 2.803-7.83 5.84-10.692 3.976-3.798 9.286-5.912 14.806-5.894h2.788c4.839-.004 9.537 1.612 13.335 4.588C85.156 19.353 94.252 13 104.932 13c13.942 0 25.196 10.797 25.196 24.134.014 1.125-.085 2.249-.296 3.354C140.64 41.722 149 50.505 149 61.164z"/>
        <rect width="4" height="11" x="37" y="62" fill="url(#prefix__b)" rx="2"/>
        <rect width="4" height="11" x="41" y="62" fill="url(#prefix__b)" rx="2"/>
        <rect width="4" height="11" x="46" y="62" fill="url(#prefix__c)" rx="2"/>
        <rect width="4" height="11" x="62" y="62" fill="url(#prefix__b)" rx="2"/>
        <rect width="4" height="11" x="69" y="62" fill="url(#prefix__b)" rx="2"/>
        <rect width="4" height="11" x="74" y="62" fill="url(#prefix__c)" rx="2"/>
        <rect width="4" height="11" x="99" y="62" fill="url(#prefix__b)" rx="2"/>
        <rect width="4" height="11" x="103" y="62" fill="url(#prefix__c)" rx="2"/>
        <rect width="4" height="11" x="108" y="62" fill="url(#prefix__c)" rx="2"/>
        <rect width="4" height="11" x="125" y="62" fill="url(#prefix__b)" rx="2"/>
        <rect width="4" height="11" x="129" y="62" fill="url(#prefix__c)" rx="2"/>
        <rect width="4" height="11" x="135" y="62" fill="url(#prefix__c)" rx="2"/>
        <rect width="4" height="11" x="37" y="132" fill="url(#prefix__d)" rx="2"/>
        <rect width="4" height="11" x="41" y="132" fill="url(#prefix__d)" rx="2"/>
        <rect width="4" height="11" x="46" y="132" fill="url(#prefix__e)" rx="2"/>
        <rect width="4" height="11" x="62" y="132" fill="url(#prefix__d)" rx="2"/>
        <rect width="4" height="11" x="69" y="132" fill="url(#prefix__d)" rx="2"/>
        <rect width="4" height="11" x="74" y="132" fill="url(#prefix__e)" rx="2"/>
        <rect width="4" height="11" x="99" y="132" fill="url(#prefix__d)" rx="2"/>
        <rect width="4" height="11" x="103" y="132" fill="url(#prefix__e)" rx="2"/>
        <rect width="4" height="11" x="108" y="132" fill="url(#prefix__e)" rx="2"/>
        <rect width="4" height="11" x="125" y="132" fill="url(#prefix__d)" rx="2"/>
        <rect width="4" height="11" x="129" y="132" fill="url(#prefix__e)" rx="2"/>
        <rect width="4" height="11" x="135" y="132" fill="url(#prefix__e)" rx="2"/>
        <path fill="url(#prefix__f)" d="M81 27.401L86.78 33S90.372 12.817 113 14.183c0 0-21.292-7.039-32 13.218z"/>
        <path fill="url(#prefix__g)" d="M45 38.907s4.08-.428 7.957 4.093c0 0 .838-18.3 17.043-18.6 0 0-6.638-4.066-15.886 1.66C45.827 31.205 45 38.908 45 38.908z"/>
        <rect width="56" height="19" x="31" y="74" fill="#00AEEE" rx="9.5"/>
        <rect width="56" height="19" x="31" y="95" fill="#00AEEE" rx="9.5"/>
        <rect width="56" height="19" x="31" y="117" fill="#00AEEE" rx="9.5"/>
        <rect width="56" height="19" x="92" y="74" fill="#00AEEE" rx="9.5"/>
        <rect width="56" height="19" x="92" y="95" fill="#00AEEE" rx="9.5"/>
        <rect width="56" height="19" x="92" y="117" fill="#00AEEE" rx="9.5"/>
        <rect width="56" height="19" x="31" y="74" fill="url(#prefix__h)" rx="9.5"/>
        <rect width="56" height="19" x="31" y="95" fill="url(#prefix__i)" rx="9.5"/>
        <rect width="56" height="19" x="31" y="117" fill="url(#prefix__j)" rx="9.5"/>
        <rect width="56" height="19" x="92" y="74" fill="url(#prefix__k)" rx="9.5"/>
        <rect width="56" height="19" x="92" y="95" fill="url(#prefix__l)" rx="9.5"/>
        <rect width="56" height="19" x="92" y="117" fill="url(#prefix__m)" rx="9.5"/>
        <rect width="56" height="19" x="31" y="69" fill="#00AEEE" rx="9.5"/>
        <rect width="56" height="19" x="31" y="93" fill="#00AEEE" rx="9.5"/>
        <rect width="56" height="19" x="31" y="114" fill="#00AEEE" rx="9.5"/>
        <rect width="56" height="19" x="92" y="69" fill="#00AEEE" rx="9.5"/>
        <rect width="56" height="19" x="92" y="93" fill="#00AEEE" rx="9.5"/>
        <rect width="56" height="19" x="92" y="114" fill="#00AEEE" rx="9.5"/>
        <path fill="url(#prefix__n)" d="M29.194 78H85v-4.59s-.31-3.868-5.863-4.41h-44.63s-6.723 1.436-5.313 9z"/>
        <path fill="url(#prefix__o)" d="M89.192 78H145v-4.59s-.305-3.868-5.86-4.41H94.513s-6.72 1.436-5.321 9z"/>
        <path fill="url(#prefix__p)" d="M29.194 102H85v-4.593s-.31-3.865-5.863-4.407h-44.63s-6.723 1.43-5.313 9z"/>
        <path fill="url(#prefix__q)" d="M89.192 102H145v-4.593s-.305-3.865-5.86-4.407H94.513s-6.72 1.43-5.321 9z"/>
        <path fill="url(#prefix__r)" d="M29.194 123H85v-4.595s-.31-3.868-5.863-4.405h-44.63s-6.723 1.431-5.313 9z"/>
        <path fill="url(#prefix__s)" d="M89.192 123H145v-4.595s-.305-3.868-5.86-4.405H94.513s-6.72 1.431-5.321 9z"/>
        <circle cx="62" cy="78" r="2" fill="#FFF"/>
        <circle cx="67" cy="78" r="2" fill="#FFF"/>
        <circle cx="72" cy="78" r="2" fill="#FFF"/>
        <circle cx="127" cy="78" r="2" fill="#FFF"/>
        <circle cx="133" cy="78" r="2" fill="#FFF"/>
        <circle cx="137" cy="78" r="2" fill="#FFF"/>
        <circle cx="62" cy="101" r="2" fill="#FFF"/>
        <circle cx="67" cy="101" r="2" fill="#FFF"/>
        <circle cx="72" cy="101" r="2" fill="#FFF"/>
        <circle cx="127" cy="101" r="2" fill="#FFF"/>
        <circle cx="133" cy="101" r="2" fill="#FFF"/>
        <circle cx="137" cy="101" r="2" fill="#FFF"/>
        <circle cx="62" cy="124" r="2" fill="#FFF"/>
        <circle cx="67" cy="124" r="2" fill="#FFF"/>
        <circle cx="72" cy="124" r="2" fill="#FFF"/>
        <circle cx="127" cy="124" r="2" fill="#FFF"/>
        <circle cx="133" cy="124" r="2" fill="#FFF"/>
        <circle cx="137" cy="124" r="2" fill="#FFF"/>
    </g>
</svg>
