<svg xmlns="http://www.w3.org/2000/svg" width="477" height="377" viewBox="0 0 477 377">
    <defs>
        <linearGradient id="prefix__a" x1="77.894%" x2="42.934%" y1="46.689%" y2="51.492%">
            <stop offset="1%"/>
            <stop offset="100%" stop-opacity="0"/>
        </linearGradient>
        <linearGradient id="prefix__b" x1="142.455%" x2="24.152%" y1="174.227%" y2="13.112%">
            <stop offset="1%"/>
            <stop offset="100%" stop-opacity="0"/>
        </linearGradient>
        <linearGradient id="prefix__c" x1="49.787%" x2="50.736%" y1="49.677%" y2="51.112%">
            <stop offset="1%"/>
            <stop offset="100%" stop-opacity="0"/>
        </linearGradient>
        <linearGradient id="prefix__d" x1="66.273%" x2="39.727%" y1="-51.104%" y2="113.991%">
            <stop offset="1%"/>
            <stop offset="100%" stop-opacity="0"/>
        </linearGradient>
        <linearGradient id="prefix__e" x1="34.204%" x2="70.49%" y1="23.874%" y2="73.198%">
            <stop offset="2%" stop-color="#FFF" stop-opacity="0"/>
            <stop offset="58%" stop-color="#FFF" stop-opacity=".39"/>
            <stop offset="100%" stop-color="#FFF"/>
        </linearGradient>
        <linearGradient id="prefix__f" x1="59.696%" x2="39.775%" y1="48.109%" y2="52.05%">
            <stop offset="2%" stop-color="#FFF" stop-opacity="0"/>
            <stop offset="58%" stop-color="#FFF" stop-opacity=".39"/>
            <stop offset="100%" stop-color="#FFF"/>
        </linearGradient>
        <linearGradient id="prefix__g" x1="107.403%" x2="42.773%" y1="-8.525%" y2="58.492%">
            <stop offset="1%"/>
            <stop offset="100%" stop-opacity="0"/>
        </linearGradient>
        <linearGradient id="prefix__h" x1="68.979%" x2="27.408%" y1="83.185%" y2="14.07%">
            <stop offset="1%"/>
            <stop offset="9%" stop-opacity=".82"/>
            <stop offset="100%" stop-opacity="0"/>
        </linearGradient>
        <linearGradient id="prefix__i" x1="46.249%" x2="53.34%" y1="35.034%" y2="65.303%">
            <stop offset="1%"/>
            <stop offset="100%" stop-opacity="0"/>
        </linearGradient>
        <linearGradient id="prefix__j" x1="65.173%" x2="36.291%" y1="-27.637%" y2="120.267%">
            <stop offset="1%"/>
            <stop offset="100%" stop-opacity="0"/>
        </linearGradient>
        <linearGradient id="prefix__k" x1="74.69%" x2="54.546%" y1="36.866%" y2="48.689%">
            <stop offset="1%"/>
            <stop offset="100%" stop-opacity="0"/>
        </linearGradient>
        <linearGradient id="prefix__l" x1="55.595%" x2="17.361%" y1="48.582%" y2="58.271%">
            <stop offset="1%"/>
            <stop offset="100%" stop-opacity="0"/>
        </linearGradient>
        <linearGradient id="prefix__m" x1="77.872%" x2="33.996%" y1="35.187%" y2="60.439%">
            <stop offset="1%"/>
            <stop offset="100%" stop-opacity="0"/>
        </linearGradient>
        <linearGradient id="prefix__n" x1="58.959%" x2="47.746%" y1="-129.095%" y2="95.079%">
            <stop offset="2%" stop-color="#FFF" stop-opacity="0"/>
            <stop offset="58%" stop-color="#FFF" stop-opacity=".39"/>
            <stop offset="68%" stop-color="#FFF" stop-opacity=".68"/>
            <stop offset="100%" stop-color="#FFF"/>
        </linearGradient>
        <linearGradient id="prefix__o" x1="101.776%" x2="52.465%" y1="-78.03%" y2="43.469%">
            <stop offset="2%" stop-color="#FFF" stop-opacity="0"/>
            <stop offset="58%" stop-color="#FFF" stop-opacity=".39"/>
            <stop offset="68%" stop-color="#FFF" stop-opacity=".68"/>
            <stop offset="100%" stop-color="#FFF"/>
        </linearGradient>
        <linearGradient id="prefix__p" x1="44.467%" x2="53.851%" y1="102.048%" y2="-15.795%">
            <stop offset="1%"/>
            <stop offset="100%" stop-opacity="0"/>
        </linearGradient>
        <linearGradient id="prefix__q" x1="36.503%" x2="65.205%" y1="28.776%" y2="69.387%">
            <stop offset="2%" stop-color="#FFF" stop-opacity="0"/>
            <stop offset="58%" stop-color="#FFF" stop-opacity=".39"/>
            <stop offset="68%" stop-color="#FFF" stop-opacity=".68"/>
            <stop offset="100%" stop-color="#FFF"/>
        </linearGradient>
        <linearGradient id="prefix__r" x1="81.467%" x2="3.867%" y1="-3.784%" y2="128.405%">
            <stop offset="1%"/>
            <stop offset="100%" stop-opacity="0"/>
        </linearGradient>
    </defs>
    <g fill="none">
        <path fill="#00AEEE" d="M423.795 364.184c24.841-9.407 47.3-29.525 52.17-55.698 4.014-21.588-4.26-43.505-14.315-63.036-10.057-19.53-22.237-38.402-26.93-59.848-8.743-39.884 9.293-84.13-7.84-121.18-5.15-11.123-13.2-20.717-22.294-28.89C364.818-.07 305.102-8.042 254.163 7.703c-50.939 15.743-93.464 52.5-124.747 95.746-12.908 17.825-24.126 36.861-38.196 53.758-18.751 22.505-43.088 42.258-51.232 70.372-5.926 20.318-2.347 42.33 4.694 62.318 10.83 30.642 57.498 85.14 79.711 85.035 49.507-.247 144.497 2.187 190.39.423 34.381-1.352 73.022 2.446 109.012-11.17z" opacity=".18"/>
        <path fill="#F1AF8C" d="M211.406 322.963c-1.177 3.34-2.212 7.17-.506 10.274 1.14 1.731 2.677 3.169 4.483 4.195l16.238 10.988c3.118 2.109 6.424 4.276 10.166 4.558 3.741.28 7.99-2.097 8.307-5.858.376-4.3-4.154-7.24-6.272-11.012-2.777-4.944-1.247-11.071.2-16.554 3.65-13.799 6.315-27.837 7.978-42.01-3.33-1.36-13.025-7.44-16.473-6.432-3.883 1.172-7.39 11.985-9.119 15.51-5.846 11.75-10.86 23.894-15.002 36.341z"/>
        <path fill="#FFF" d="M242.773 230.06c-4.205 11.897-8.667 23.829-15.408 34.52-.245.31-.374.695-.365 1.088.108.37.34.693.658.913 6.777 5.907 14.093 12.072 23.007 13.347.58.134 1.19.08 1.738-.152.515-.363.894-.886 1.08-1.486 5.685-13.113 7.693-27.478 7.505-41.68-.123-7.093-.688-14.172-1.691-21.196-.235-1.707-.364-9.288-1.856-10.177-2.266-1.333-4.756 3.323-5.743 4.785-4.087 6.094-6.506 13.113-8.925 20.038z"/>
        <path fill="url(#prefix__a)" d="M261 207s-5.252 1.996-9.525 16.992C247.2 238.987 237 275.332 237 275.332s15.779 7.994 19.726 4.995C260.674 277.327 261 207 261 207z"/>
        <path fill="#FFF" d="M305.844 192.072c8.69-.27 17.488.152 25.848 2.498 8.361 2.345 16.31 6.779 21.798 13.499 6.076 7.436 8.737 17.158 9.35 26.717.612 9.559-.66 19.14-1.625 28.688-2.263 22.345-2.861 44.828-1.79 67.261.259 5.372 3.344 33.414-.448 37.25-2.355 2.416 2.355 4.832-1 5.63-27.439 6.567-76.733 3.342-102.71-7.613-6.606-2.79-13.236-6.673-16.486-13.03-3.533-6.884 6.005-34.176 7.148-41.835 3.462-23.37 5.958-46.866 7.489-70.487.671-10.45-.106-21.709 2.049-31.971 1.566-7.448 6.383-9.477 13.33-11.306 12.112-3.138 24.538-4.916 37.047-5.301z"/>
        <path fill="url(#prefix__b)" d="M328.977 313.489c-.903 4.763-2.088 9.737-5.337 13.336-2.571 2.575-5.715 4.502-9.174 5.621-16.307 6.162-34.9 5.198-50.527 12.936-1.102.484-2.117 1.148-3.003 1.964-3.015 2.987-2.17 8.232.223 11.76 5.314 7.797 15.65 9.985 24.976 11.431 22.36 3.528 45.189 6.41 67.537 2.8 1.216-.089 2.379-.535 3.343-1.283.771-.897 1.265-2 1.42-3.175 5.068-22.556 1.079-46.041.985-69.162 0-13.336 1.173-26.683.27-39.984-.455-8.277-2.172-16.435-5.091-24.19-2.077-5.27-8.154-16.9-11.802-6.104-5.795 17.158-7.461 35.657-9.55 53.544-1.137 10.196-2.357 20.404-4.27 30.506z"/>
        <rect width="209" height="19" x="136" y="355" fill="#00AEEE" rx="8.21"/>
        <rect width="209" height="19" x="136" y="355" fill="url(#prefix__c)" rx="8.21"/>
        <path fill="#F1AF8C" d="M284.956 209.91c-3.901-.618-6.094-4.499-4.35-13.845.19-1.038.437-2.04.72-3.042 0-.187.106-.373.153-.56.424-1.445.907-2.89 1.379-4.323 1.312-3.44 2.006-7.08 2.05-10.757-.105-2.68-.317-5.466.685-7.936.962-2.097 2.471-3.903 4.373-5.233 4.208-3.205 16.502-9.23 18.86-1.27 1.048 3.403.282 7.365.235 10.85-.236 4.993.692 9.973 2.711 14.556 2.57 5.104-17.233 23.075-26.816 21.56z"/>
        <path fill="url(#prefix__d)" d="M283 190s21.793-8.135 26-21l-23.223 7.473S285.222 188.245 283 190z"/>
        <path fill="#FFF" d="M341.585 218.756c-2.21 24.676 1.864 49.513 11.84 72.174.295.836.791 1.585 1.444 2.182 1.054.657 2.287.963 3.524.873 9.662.208 19.115-2.84 26.85-8.658 2.35-1.781 4.557-4.058 4.757-6.83.005-1.485-.286-2.957-.857-4.328-5.997-17.499-12.997-34.634-20.966-51.32-2.96-6.181-6.93-13.423-14.095-16.148-8.62-3.267-11.898 5.59-12.497 12.055z"/>
        <path fill="#00AEEE" d="M299.289 232.977c6.353-6.817 11.011-15.051 15.61-23.191 2.8-4.962 5.669-10.148 6.064-15.866.1-.65-.002-1.314-.29-1.902-.28-.41-.645-.753-1.07-1.005L310.882 185c-.151 5.446-3.996 10.125-8.386 13.255-4.646 3.356-17.946 7.03-15.1 13.988.709 1.76 11.15 21.525 11.894 20.734zM285 210.002c-2.584 5.215-5.453 10.275-8.595 15.157-1.213 1.89-2.575 3.851-4.578 4.696-.257.137-.552.178-.835.118-.504-.176-.618-.857-.653-1.397-.423-9.029-.835-18.21 1.316-27.004.681-3.117 1.94-6.07 3.709-8.7.618-.845 5.562-4.485 7.645-4.872-.458 1.444-.927 2.9-1.34 4.356-.068.136-.114.283-.137.434v.13c-.274 1.009-.515 2.019-.698 3.064-1.717 9.486.412 13.396 4.166 14.018z"/>
        <path fill="url(#prefix__e)" d="M299.289 232.977c6.353-6.817 11.011-15.051 15.61-23.191 2.8-4.962 5.669-10.148 6.064-15.866.1-.65-.002-1.314-.29-1.902-.28-.41-.645-.753-1.07-1.005L310.882 185c-.151 5.446-3.996 10.125-8.386 13.255-4.646 3.356-17.946 7.03-15.1 13.988.709 1.76 11.15 21.525 11.894 20.734z"/>
        <path fill="url(#prefix__f)" d="M285 210.002c-2.584 5.215-5.453 10.275-8.595 15.157-1.213 1.89-2.575 3.851-4.578 4.696-.257.137-.552.178-.835.118-.504-.176-.618-.857-.653-1.397-.423-9.029-.835-18.21 1.316-27.004.681-3.117 1.94-6.07 3.709-8.7.618-.845 5.562-4.485 7.645-4.872-.458 1.444-.927 2.9-1.34 4.356-.068.136-.114.283-.137.434v.13c-.274 1.009-.515 2.019-.698 3.064-1.717 9.486.412 13.396 4.166 14.018z"/>
        <path fill="#F1AF8C" d="M349.869 359.87l51.428-9.783c3.041-.584 6.211-1.168 8.618-3.155 3.3-2.642 4.462-7.27 3.98-11.467-.48-4.196-2.348-8.088-4.203-11.899-7.303-15.054-22.121-42.078-22.215-40.5-8.994 1.894-16.438 1.987-24.164 6.908-1.33.715-2.454 1.757-3.264 3.027-3.088 5.844 5.354 14.377 8.219 18.819 1.098 1.42 1.832 3.084 2.137 4.85.061 1.248-.172 2.493-.681 3.635-2.783 6.803-12.693 10.765-18.787 14.26-7.967 4.796-16.9 7.781-26.16 8.743-7.186.608-14.525-.315-21.546 1.286-8.714 2.066-16.096 7.799-20.231 15.71 4.18 2.64 9.616 1.11 14.43-.094 8.92-2.203 18.141-2.941 27.3-2.186 5.941.502 22.32 7.352 25.139 1.847z"/>
        <path fill="#00AEEE" d="M270 374H124.101l-38.486-97.28c-1.06-2.634-.736-5.621.863-7.97 1.599-2.35 4.265-3.755 7.114-3.75h114.53c11.351-.006 21.55 6.908 25.71 17.428L270 374z"/>
        <path fill="url(#prefix__g)" d="M270 374H124.101l-38.486-97.28c-1.06-2.634-.736-5.621.863-7.97 1.599-2.35 4.265-3.755 7.114-3.75h114.53c11.351-.006 21.55 6.908 25.71 17.428L270 374z"/>
        <path fill="url(#prefix__h)" d="M262 375H123.975l-36.41-92.844c-.984-2.512-.67-5.35.84-7.583 1.51-2.232 4.02-3.57 6.704-3.573h108.316c10.735.008 20.376 6.607 24.32 16.646L262 375z"/>
        <path fill="#00AEEE" d="M281.077 53.187c3.494-2.033 6.989-4.1 10.937-4.862 3.949-.763 9.319-.3 11.986 2.656-6.993.488-13.457 3.87-17.81 9.321-.2.35-.517.62-.896.762-.325.034-.653-.026-.944-.173-1.607-.6-13.651 2.125-14.35.681.035 0 9.598-7.495 11.077-8.385z"/>
        <path fill="url(#prefix__i)" d="M281.077 53.187c3.494-2.033 6.989-4.1 10.937-4.862 3.949-.763 9.319-.3 11.986 2.656-6.993.488-13.457 3.87-17.81 9.321-.2.35-.517.62-.896.762-.325.034-.653-.026-.944-.173-1.607-.6-13.651 2.125-14.35.681.035 0 9.598-7.495 11.077-8.385z"/>
        <ellipse cx="254.5" cy="124.5" fill="#00AEEE" rx="14.5" ry="17.5"/>
        <ellipse cx="257" cy="126.5" fill="#00AEEE" rx="13" ry="16.5"/>
        <ellipse cx="257" cy="126.5" fill="url(#prefix__j)" rx="13" ry="16.5"/>
        <path fill="#F1AF8C" d="M253 94.335l3.28 60.578s1.458 22.86 23.9 23.084c26.957.27 35.161-15.554 39.257-27.597 4.097-12.042 7.796-47.416 0-57.196-7.795-9.78-51.663-33.853-66.437 1.131z"/>
        <path fill="#3F3D56" d="M269.593 58.005c-10.672-.187-22.864 4.768-27.729 14.784-2.364 4.668-2.485 10.147-.33 14.913.391.692.7 1.428.92 2.19.105.845.105 1.699 0 2.543-.19 4.132 1.706 8.086 5.053 10.543 1.873 1.347 4.146 2.19 5.642 3.936l-.577-11.21c-.278-1.262.523-2.509 1.79-2.789l7.174-3.327s2.215 1.605 2.486 1.734c1.19.504 2.475.748 3.769.715 2.812.066 5.624-.091 8.41-.469 6.02-.855 11.78-3.046 17.399-5.225-.182 1.732-.936 3.355-2.144 4.616l18.294 3.514c2.679 3.664 4.84 7.677 6.42 11.926 1.264 3.32 2.095 6.79 2.473 10.32.49 4.802.038 9.651-1.33 14.281 1.243-.943 2.332-2.074 3.227-3.35 1.654 1.142 3.484 2.008 5.418 2.565.403.149.839.185 1.26.106.896-.246 1.084-1.3 1.179-2.144.73-7.556 6.384-13.94 8.976-21.157 3.145-8.74 1.555-18.568-3.251-26.663-1.424-2.565-3.36-4.813-5.69-6.607-8.422-6.139-20.39-3.327-30.002-6.537-4.57-1.523-8.246-4.417-12.616-6.326-4.854-2.05-10.932-2.788-16.22-2.882z"/>
        <path fill="url(#prefix__k)" d="M269.593 58.005c-10.672-.187-22.864 4.768-27.729 14.784-2.364 4.668-2.485 10.147-.33 14.913.391.692.7 1.428.92 2.19.105.845.105 1.699 0 2.543-.19 4.132 1.706 8.086 5.053 10.543 1.873 1.347 4.146 2.19 5.642 3.936l-.577-11.21c-.278-1.262.523-2.509 1.79-2.789l7.174-3.327s2.215 1.605 2.486 1.734c1.19.504 2.475.748 3.769.715 2.812.066 5.624-.091 8.41-.469 6.02-.855 11.78-3.046 17.399-5.225-.182 1.732-.936 3.355-2.144 4.616l18.294 3.514c2.679 3.664 4.84 7.677 6.42 11.926 1.264 3.32 2.095 6.79 2.473 10.32.49 4.802.038 9.651-1.33 14.281 1.243-.943 2.332-2.074 3.227-3.35 1.654 1.142 3.484 2.008 5.418 2.565.403.149.839.185 1.26.106.896-.246 1.084-1.3 1.179-2.144.73-7.556 6.384-13.94 8.976-21.157 3.145-8.74 1.555-18.568-3.251-26.663-1.424-2.565-3.36-4.813-5.69-6.607-8.422-6.139-20.39-3.327-30.002-6.537-4.57-1.523-8.246-4.417-12.616-6.326-4.854-2.05-10.932-2.788-16.22-2.882z"/>
        <ellipse cx="333" cy="127.5" fill="#00AEEE" rx="14" ry="17.5"/>
        <ellipse cx="333" cy="127.5" fill="url(#prefix__l)" rx="14" ry="17.5"/>
        <ellipse cx="338" cy="127.5" fill="#00AEEE" rx="14" ry="17.5"/>
        <path fill="#00AEEE" d="M339 111.068l-7.065.755-1.684.177-7.066-34.857c-3.674-13.786-12.659-24.386-23.928-28.494-1.745-.61-3.602-.831-5.44-.65l-4.817.438 2.355-.626 4.71-1.251c1.472-.407 2.996-.594 4.522-.555 12.577.46 24.506 10.623 28.828 25.19L339 111.067z"/>
        <path fill="url(#prefix__m)" d="M339 111.068l-7.065.755-1.684.177-7.066-34.857c-3.674-13.786-12.659-24.386-23.928-28.494-1.745-.61-3.602-.831-5.44-.65l-4.817.438 2.355-.626 4.71-1.251c1.472-.407 2.996-.594 4.522-.555 12.577.46 24.506 10.623 28.828 25.19L339 111.067z"/>
        <path fill="#00AEEE" d="M339 111.254l-7.118.746-7.118-34.502c-3.761-13.755-12.896-24.304-24.356-28.395-1.773-.624-3.667-.847-5.54-.653l-3.868.338 4.745-1.235c1.483-.402 3.018-.587 4.556-.548 12.67.455 24.688 10.49 29.042 24.874L339 111.254z"/>
        <rect width="209" height="239" y="6" fill="#00AEEE" opacity=".45" rx="15.64"/>
        <circle cx="63.5" cy="190.5" r="31.5" fill="url(#prefix__n)"/>
        <path fill="#00AEEE" d="M18 28H152V36H18z"/>
        <path fill="#00AEEE" d="M22 127H156V135H22z" opacity=".51"/>
        <path fill="#00AEEE" d="M23 114H118V122H23zM130 114H194V122H130zM96 67H194V74H96z"/>
        <path fill="#00AEEE" d="M75 79H180V86H75z" opacity=".51"/>
        <path fill="#00AEEE" d="M25 67H89V74H25zM53 90H194V97H53z"/>
        <path fill="#00AEEE" d="M24 90H45V97H24zM101 102H194V109H101z" opacity=".51"/>
        <path fill="#00AEEE" d="M25 102H89V109H25zM25 79H66V86H25zM70.296 170.246c-1.817 2.241-2.12 5.374-1.782 8.213.105.515.105 1.046 0 1.56-.154.434-.392.832-.699 1.174-4.935 6.18-10.462 11.854-16.502 16.942-.17.165-.373.293-.594.375-.396.082-.807.024-1.165-.164-1.747-.693-3.622-1.443-5.45-.998-1.681.507-3.02 1.794-3.6 3.462-.564 1.657-.657 3.442-.267 5.15 1.988-1.666 4.057-3.23 6.207-4.693l3.063 3.062c.322.247.519.626.536 1.033-.06.24-.185.46-.361.633l-4.519 5.374c3.03 1.222 6.483.643 8.956-1.502 2.33-2.23 2.679-6.394.396-8.635l17.342-19.582c2.402 1.79 5.697 1.743 8.047-.117 2.256-1.921 3.395-4.861 3.028-7.814-2.158 1.303-4.16 2.855-5.963 4.623l-3.494-4.388c1.235-1.173 6.021-4.412 2.912-5.679-2.05-.833-4.763.34-6.091 1.971z"/>
        <path fill="url(#prefix__o)" d="M171.334 202.147l1.666-5.359s-6.583-5.253-6.78-4.923l-.269-3.875 6.024-6.477-2.773-4.864s-8.155 1.342-8.155 1.72c-1.574-1.496-3.27-2.855-5.068-4.064l-.257-8.833-5.359-1.472s-4.905 6.878-4.579 7.066c0 0-3.774.801-5.58 1.378l-6.105-5.252-4.66 3.038s1.386 6.56 1.934 7.938c-1.305 1.449-2.936 3.086-2.936 3.086l-8.691 1.413-.746 5.559s6.117 3.345 7.305 3.686c.025 1.8.3 3.588.815 5.312l-4.741 7.372 3.576 4.287s4.742-1.684 6.804-2.602c1.923 1.766 4.66 3.862 4.66 3.862l2.19 8.621 5.546.236s2.668-6.277 2.948-7.655c1.784-.201 3.583-.225 5.37-.07l7.795 4.133 3.903-4.004c-1.126-2.546-2.382-5.03-3.763-7.444.495-.608.942-1.254 1.34-1.931l8.586.118zm-25.864.2c-4.459.005-8.481-2.707-10.19-6.87-1.71-4.163-.77-8.957 2.38-12.145 3.152-3.19 7.893-4.145 12.013-2.42 4.12 1.723 6.807 5.786 6.807 10.294-.007 6.145-4.93 11.128-11.01 11.14z"/>
        <path fill="url(#prefix__p)" d="M245.036 90.599c2.086-4.103 6.612-6.54 11.174-7.28 4.561-.738 9.229-.058 13.79.634-4.42 3.516-16.76 8.755-16.996 9.693-.166 1.66-.186 3.33-.06 4.993.166 2.415.248 4.946.237 7.361-1.139-1.109-2.414-2.07-3.796-2.86-1.187-.455-2.27-1.145-3.182-2.028-2.435-2.97-2.892-7.086-1.167-10.513z"/>
        <path fill="#00AEEE" d="M305.24 169c-5.288-.107-10.531-.98-15.567-2.59-1.24-.371-1.945-1.675-1.574-2.912.372-1.237 1.68-1.94 2.92-1.57 12.055 3.618 21.125 3.14 26.918-1.423 7.889-6.173 7.374-17.935 7.374-18.052-.065-1.288.93-2.386 2.223-2.45 1.293-.064 2.394.928 2.458 2.217 0 .572.62 14.318-9.164 21.972-4.073 3.198-9.269 4.8-15.589 4.808z"/>
        <path fill="url(#prefix__q)" d="M305.24 169c-5.288-.107-10.531-.98-15.567-2.59-1.24-.371-1.945-1.675-1.574-2.912.372-1.237 1.68-1.94 2.92-1.57 12.055 3.618 21.125 3.14 26.918-1.423 7.889-6.173 7.374-17.935 7.374-18.052-.065-1.288.93-2.386 2.223-2.45 1.293-.064 2.394.928 2.458 2.217 0 .572.62 14.318-9.164 21.972-4.073 3.198-9.269 4.8-15.589 4.808z"/>
        <path fill="#00AEEE" d="M290.894 158.016c1.362.687 2.43 1.848 3.004 3.265.522 2.026-1.045 3.968-2.66 5.29-1.387 1.242-3.094 2.068-4.926 2.384-2.683.322-5.247-1.132-7.479-2.67-1.245-.762-2.307-1.791-3.11-3.014-2.066-3.646.605-8.34 4.107-9.89 3.882-1.68 8.013 2.621 11.064 4.635z"/>
        <path fill="url(#prefix__r)" d="M290.894 158.016c1.362.687 2.43 1.848 3.004 3.265.522 2.026-1.045 3.968-2.66 5.29-1.387 1.242-3.094 2.068-4.926 2.384-2.683.322-5.247-1.132-7.479-2.67-1.245-.762-2.307-1.791-3.11-3.014-2.066-3.646.605-8.34 4.107-9.89 3.882-1.68 8.013 2.621 11.064 4.635z"/>
    </g>
</svg>
