<svg xmlns="http://www.w3.org/2000/svg" width="393" height="331" viewBox="0 0 393 331">
    <defs>
        <linearGradient id="prefix__a" x1=".003%" x2="99.996%" y1="49.965%" y2="49.965%">
            <stop offset="0%" stop-color="#183866"/>
            <stop offset="100%" stop-color="#1A7FC1"/>
        </linearGradient>
        <linearGradient id="prefix__b" x1="63.362%" x2="-4.878%" y1="47.702%" y2="56.858%">
            <stop offset="0%" stop-opacity="0"/>
            <stop offset="97%"/>
            <stop offset="97%" stop-color="#0C0C11"/>
            <stop offset="98%" stop-color="#312F43"/>
            <stop offset="99%" stop-color="#3F3D56"/>
        </linearGradient>
        <linearGradient id="prefix__c" x1="54.339%" x2="149.657%" y1="-154.89%" y2="-188.375%">
            <stop offset="0%" stop-opacity="0"/>
            <stop offset="97%"/>
            <stop offset="97%" stop-color="#0C0C11"/>
            <stop offset="98%" stop-color="#312F43"/>
            <stop offset="99%" stop-color="#3F3D56"/>
        </linearGradient>
        <linearGradient id="prefix__d" x1="40.796%" x2="80.161%" y1="52.18%" y2="43.397%">
            <stop offset="0%" stop-opacity="0"/>
            <stop offset="29%" stop-opacity=".29"/>
            <stop offset="97%"/>
            <stop offset="97%" stop-color="#0C0C11"/>
            <stop offset="98%" stop-color="#312F43"/>
            <stop offset="99%" stop-color="#3F3D56"/>
        </linearGradient>
        <linearGradient id="prefix__e" x1="119.408%" x2="17.995%" y1="149.012%" y2="5.035%">
            <stop offset="0%" stop-opacity="0"/>
            <stop offset="84%" stop-opacity=".66"/>
            <stop offset="97%"/>
        </linearGradient>
        <linearGradient id="prefix__f" x1="114.747%" x2="-10.636%" y1="44.234%" y2="55.082%">
            <stop offset="0%" stop-opacity="0"/>
            <stop offset="87%" stop-opacity=".66"/>
            <stop offset="100%"/>
        </linearGradient>
        <linearGradient id="prefix__g" x1="49.768%" x2="51.189%" y1="49.142%" y2="55.118%">
            <stop offset="0%" stop-opacity="0"/>
            <stop offset="50%" stop-opacity=".38"/>
            <stop offset="97%"/>
            <stop offset="97%" stop-color="#0C0C11"/>
            <stop offset="98%" stop-color="#312F43"/>
            <stop offset="99%" stop-color="#3F3D56"/>
        </linearGradient>
        <linearGradient id="prefix__h" x1="49.271%" x2="51.54%" y1="-38.169%" y2="226.499%">
            <stop offset="0%" stop-opacity="0"/>
            <stop offset="50%" stop-opacity=".38"/>
            <stop offset="97%"/>
            <stop offset="97%" stop-color="#0C0C11"/>
            <stop offset="98%" stop-color="#312F43"/>
            <stop offset="99%" stop-color="#3F3D56"/>
        </linearGradient>
        <linearGradient id="prefix__i" x1="49.271%" x2="51.54%" y1="-39.627%" y2="225.122%">
            <stop offset="0%" stop-opacity="0"/>
            <stop offset="50%" stop-opacity=".38"/>
            <stop offset="97%"/>
            <stop offset="97%" stop-color="#0C0C11"/>
            <stop offset="98%" stop-color="#312F43"/>
            <stop offset="99%" stop-color="#3F3D56"/>
        </linearGradient>
        <linearGradient id="prefix__j" x1="49.271%" x2="51.54%" y1="-41.005%" y2="223.663%">
            <stop offset="0%" stop-opacity="0"/>
            <stop offset="50%" stop-opacity=".38"/>
            <stop offset="97%"/>
            <stop offset="97%" stop-color="#0C0C11"/>
            <stop offset="98%" stop-color="#312F43"/>
            <stop offset="99%" stop-color="#3F3D56"/>
        </linearGradient>
        <linearGradient id="prefix__k" x1="73.52%" x2="33.731%" y1="-99.31%" y2="153.287%">
            <stop offset="1%"/>
            <stop offset="99%" stop-opacity="0"/>
        </linearGradient>
        <linearGradient id="prefix__l" x1="136.571%" x2="134.851%" y1="-278.972%" y2="-203.275%">
            <stop offset="1%"/>
            <stop offset="99%" stop-opacity="0"/>
        </linearGradient>
        <linearGradient id="prefix__m" x1="36.966%" x2="175.453%" y1="29.795%" y2="213.832%">
            <stop offset="1%"/>
            <stop offset="15%" stop-opacity=".52"/>
            <stop offset="99%" stop-opacity="0"/>
        </linearGradient>
        <linearGradient id="prefix__n" x1="54.741%" x2="-25.175%" y1="56.201%" y2="-44.915%">
            <stop offset="1%"/>
            <stop offset="16%" stop-opacity=".52"/>
            <stop offset="100%" stop-opacity="0"/>
        </linearGradient>
        <linearGradient id="prefix__o" x1="62.869%" x2="192.444%" y1="-208.506%" y2="-251.067%">
            <stop offset="1%"/>
            <stop offset="15%" stop-opacity=".52"/>
            <stop offset="99%" stop-opacity="0"/>
        </linearGradient>
        <linearGradient id="prefix__p" x1="76.281%" x2="197.006%" y1="-265.115%" y2="-371.687%">
            <stop offset="1%"/>
            <stop offset="15%" stop-opacity=".52"/>
            <stop offset="99%" stop-opacity="0"/>
        </linearGradient>
        <linearGradient id="prefix__q" x1="116.838%" x2="368.922%" y1="-523.694%" y2="-451.564%">
            <stop offset="1%"/>
            <stop offset="15%" stop-opacity=".52"/>
            <stop offset="99%" stop-opacity="0"/>
        </linearGradient>
        <linearGradient id="prefix__r" x1="32.025%" x2="66.661%" y1="43.936%" y2="58.922%">
            <stop offset="0%" stop-color="#ECC4D7"/>
            <stop offset="42%" stop-color="#EFD4D1"/>
            <stop offset="100%" stop-color="#F2EAC9"/>
        </linearGradient>
        <linearGradient id="prefix__s" x1="8.714%" x2="259.335%" y1="53.377%" y2="-46.17%">
            <stop offset="1%"/>
            <stop offset="3%" stop-opacity=".93"/>
            <stop offset="51%" stop-opacity=".05"/>
            <stop offset="58%" stop-opacity=".03"/>
            <stop offset="99%" stop-opacity="0"/>
        </linearGradient>
        <linearGradient id="prefix__t" x1="216.21%" x2="451.222%" y1="-275.669%" y2="-280.654%">
            <stop offset="1%"/>
            <stop offset="15%" stop-opacity=".52"/>
            <stop offset="99%" stop-opacity="0"/>
        </linearGradient>
        <linearGradient id="prefix__u" x1="-4731.898%" x2="-4534.023%" y1="3422.635%" y2="3539.549%">
            <stop offset="0%" stop-color="#ECC4D7"/>
            <stop offset="42%" stop-color="#EFD4D1"/>
            <stop offset="100%" stop-color="#F2EAC9"/>
        </linearGradient>
        <linearGradient id="prefix__v" x1="287.98%" x2="259.596%" y1="-1182.082%" y2="-306.938%">
            <stop offset="1%"/>
            <stop offset="15%" stop-opacity=".52"/>
            <stop offset="99%" stop-opacity="0"/>
        </linearGradient>
        <linearGradient id="prefix__w" x1="287.629%" x2="259.227%" y1="-1165.78%" y2="-290.639%">
            <stop offset="1%"/>
            <stop offset="15%" stop-opacity=".52"/>
            <stop offset="99%" stop-opacity="0"/>
        </linearGradient>
    </defs>
    <g fill="none">
        <path fill="url(#prefix__a)" d="M83.821 306.62c.695 1.784-.74 3.762-2.494 4.611-1.755.85-3.785.924-5.683 1.403-2.952.741-5.551 2.429-8.41 3.466-3.922 1.424-8.193 1.58-12.38 1.72-12.636.425-26.122.634-36.86-5.869-.403-.193-.73-.51-.932-.903-.113-.389-.071-.805.116-1.166.889-1.994 3.438-2.601 5.645-2.94 10.395-1.58 21.039-3.01 31.567-3.37 5.473-.177 27.356-2.327 29.431 3.048z" opacity=".19"/>
        <path fill="#1D2741" d="M301.861 306.706c-4.814.982-9.35 2.995-13.843 5.02L270 319.742c10.05 5.432 22.25 3.19 33.666 3.034 1 0 2.076 0 2.87.625 1.11.875 1.21 2.532 1.905 3.781 1.305 2.365 4.442 2.84 7.124 3.018 24.287 1.59 48.67.809 72.806-2.331 1.155-.151 2.366-.33 3.298-1.027 2.777-2.08.822-6.883-2.32-8.367-3.143-1.483-6.836-1.115-10.173-2.075-3.337-.959-6.558-4.506-4.997-7.636-13.76.276-27.52.127-41.279-.446-10.383-.446-20.672-3.731-31.039-1.612z" opacity=".18"/>
        <path fill="#00AEEE" d="M368.797 187.422c2.26-23.53 13.738-48.421 2.005-69.696-3.08-5.556-7.496-10.317-12.435-14.746-6.526-5.84-13.96-11.112-20.459-16.996-11.5-10.423-18.076-22.886-26.935-34.314-3.67-4.825-7.847-9.245-12.457-13.185-1.834-1.545-3.69-3.065-5.569-4.562C277.545 21.75 260.21 11.3 240.497 5.232c-27.954-8.568-61.187-7.196-84.793 8.473-8.497 5.64-15.38 12.779-22.018 20.224-5.357 5.984-10.53 12.129-16.254 17.74-5.118 5.046-10.664 9.668-17.14 13.374-9.222 5.284-19.836 8.39-29.62 12.83-6.276 2.846-12.247 6.322-17.82 10.372-7.479 5.419-14.167 11.847-19.873 19.102-12.374 15.735-19.373 34.71-18.9 53.811.072 2.99.317 5.995.412 8.996.185 3.298-.005 6.607-.568 9.862-1.036 5.334-3.58 10.345-6.209 15.313C4.134 202.09.386 208.779.03 216.13c-.623 12.634 8.754 23.458 19.156 32.708 1.738 1.545 3.509 3.05 5.257 4.512 2.784 2.334 5.652 4.667 8.542 6.973l.557.444c1.548 1.228 3.102 2.45 4.678 3.662 3.953 3.04 8.002 6 12.15 8.823 1.857 1.256 3.713 2.476 5.569 3.662 4.323 2.768 8.783 5.316 13.364 7.634 11.31 5.734 23.388 9.923 36.385 11.59 35.6 4.445 71.01-11.351 106.917-9.262 23.56 1.366 45.534 10.334 68.365 15.557 22.832 5.223 49.343 6.056 67.753-6.85 16.968-11.874 22.53-32.388 22.575-51.356.045-18.969-4.327-37.898-2.5-56.806z" opacity=".18"/>
        <path fill="#00AEEE" d="M342.636 34H48.38c-4.073-.006-7.982 1.599-10.866 4.46-2.884 2.863-4.508 6.748-4.514 10.802V260h325V49.284C358 40.843 351.124 34 342.642 34h-.006z"/>
        <path fill="url(#prefix__b)" d="M92.328 227.181c-.559 5.804-5.793 10.066-11.183 11.891-2.796.946-5.765 1.475-8.164 3.2-2.399 1.724-3.97 5.213-2.46 7.79 3.756-.018 7.14 2.253 8.532 5.725-3.45 5.225-9.561 8.08-15.656 8.903-6.095.824-12.302-.145-18.341-1.146-2.12-.345-4.379-.768-5.905-2.315-1.527-1.547-1.946-3.795-2.326-5.926-.05-.3-.107-.6-.162-.907H33V52h20.018v96.262c0 7.852-.357 15.77-.234 23.593.123 7.445 5.1 11.218 9.841 16.632 1.46 1.67 2.975 3.439 3.405 5.637.464 2.331-.374 4.802.246 7.088 1.074 3.973 6.1 5.476 9.96 4.352 3.858-1.124 6.95-4.018 10.277-6.321 5.75-3.969 12.499-6.26 19.487-6.616-2.343 9.887-13.867 16.136-14.136 26.324-.084 2.76.733 5.476.464 8.23z" opacity=".47"/>
        <path fill="#00AEEE" d="M19.34 235.096c-4.944-8.103-8.405-17.209-9.388-26.682-.605-5.775-.347-11.868-2.918-17.058-1.527-3.086-4.016-5.737-4.785-9.106-1.428-6.293 3.555-12.046 8.131-16.54.275-.334.642-.575 1.055-.691.714-.134 1.357.468 1.79 1.064 2.621 3.58 2.83 8.353 3.5 12.736.72 4.762 2.258 9.685 5.835 12.865 3.577 3.18 9.087 4.578 10.85 9.067 1.566 3.999-.68 8.716.731 12.776 1.412 4.06 6.241 6.493 6.966 10.77.484 2.84-1.021 5.659-.977 8.538.032 2.194.961 4.26 1.488 6.394 1.132 4.577 0 17.983-6.862 14.062-6.213-3.537-11.767-12.22-15.415-18.195z"/>
        <path fill="url(#prefix__c)" d="M19.34 235.096c-4.944-8.103-8.405-17.209-9.388-26.682-.605-5.775-.347-11.868-2.918-17.058-1.527-3.086-4.016-5.737-4.785-9.106-1.428-6.293 3.555-12.046 8.131-16.54.275-.334.642-.575 1.055-.691.714-.134 1.357.468 1.79 1.064 2.621 3.58 2.83 8.353 3.5 12.736.72 4.762 2.258 9.685 5.835 12.865 3.577 3.18 9.087 4.578 10.85 9.067 1.566 3.999-.68 8.716.731 12.776 1.412 4.06 6.241 6.493 6.966 10.77.484 2.84-1.021 5.659-.977 8.538.032 2.194.961 4.26 1.488 6.394 1.132 4.577 0 17.983-6.862 14.062-6.213-3.537-11.767-12.22-15.415-18.195z"/>
        <path fill="#00AEEE" d="M31.283 225.662c-1.764-9.382-1.823-19.19.54-28.437 1.43-5.642 3.776-11.267 3.167-17.065-.345-3.45-1.727-6.838-1.273-10.27.847-6.425 7.391-10.065 13.132-12.615.369-.21.789-.303 1.208-.268.707.134 1.08.928 1.279 1.644 1.181 4.305-.254 8.845-1.15 13.223-.965 4.73-1.24 9.908.95 14.18 2.19 4.271 6.782 7.57 6.863 12.418.07 4.322-3.61 7.945-3.701 12.261-.092 4.317 3.507 8.342 2.697 12.625-.539 2.84-2.88 4.943-3.825 7.66-.723 2.075-.577 4.35-.82 6.542-.54 4.708-6.14 16.902-11.125 10.735-4.489-5.58-6.647-15.728-7.942-22.633z"/>
        <path fill="url(#prefix__d)" d="M31.283 225.662c-1.764-9.382-1.823-19.19.54-28.437 1.43-5.642 3.776-11.267 3.167-17.065-.345-3.45-1.727-6.838-1.273-10.27.847-6.425 7.391-10.065 13.132-12.615.369-.21.789-.303 1.208-.268.707.134 1.08.928 1.279 1.644 1.181 4.305-.254 8.845-1.15 13.223-.965 4.73-1.24 9.908.95 14.18 2.19 4.271 6.782 7.57 6.863 12.418.07 4.322-3.61 7.945-3.701 12.261-.092 4.317 3.507 8.342 2.697 12.625-.539 2.84-2.88 4.943-3.825 7.66-.723 2.075-.577 4.35-.82 6.542-.54 4.708-6.14 16.902-11.125 10.735-4.489-5.58-6.647-15.728-7.942-22.633z"/>
        <path fill="#00AEEE" d="M44.692 227.555c4.787-8.192 11.173-15.52 19.056-20.851 4.81-3.243 10.304-5.864 13.655-10.587 1.993-2.804 3.151-6.263 5.75-8.518 4.872-4.218 12.326-2.483 18.472-.51.424.09.812.304 1.113.615.462.554.234 1.424-.083 2.095-1.904 4.007-6.001 6.418-9.564 9.079-3.858 2.87-7.465 6.545-8.568 11.212-1.102 4.667.295 10.237-2.828 13.906-2.783 3.27-8.01 3.475-10.916 6.651-2.906 3.176-2.75 8.597-6.18 11.246-2.277 1.757-5.478 1.74-7.994 3.126-1.92 1.059-3.301 2.849-4.932 4.318-3.496 3.153-15.85 8.446-15.671.476.15-7.166 5.155-16.217 8.69-22.258z"/>
        <path fill="url(#prefix__e)" d="M44.692 227.555c4.787-8.192 11.173-15.52 19.056-20.851 4.81-3.243 10.304-5.864 13.655-10.587 1.993-2.804 3.151-6.263 5.75-8.518 4.872-4.218 12.326-2.483 18.472-.51.424.09.812.304 1.113.615.462.554.234 1.424-.083 2.095-1.904 4.007-6.001 6.418-9.564 9.079-3.858 2.87-7.465 6.545-8.568 11.212-1.102 4.667.295 10.237-2.828 13.906-2.783 3.27-8.01 3.475-10.916 6.651-2.906 3.176-2.75 8.597-6.18 11.246-2.277 1.757-5.478 1.74-7.994 3.126-1.92 1.059-3.301 2.849-4.932 4.318-3.496 3.153-15.85 8.446-15.671.476.15-7.166 5.155-16.217 8.69-22.258z"/>
        <path fill="#00AEEE" d="M74.9 255.628l-.746 4.252-.64 3.701-1.518 8.92-.607 3.702-1.535 8.925-.64 3.696L65.398 311h-39.69l-3.85-22.176-.64-3.696-1.518-8.925-.646-3.702-1.58-8.92-.628-3.701-.735-4.247c-.697-4.001 1.95-7.816 5.914-8.52.417-.075.84-.112 1.263-.113h44.424c1.93-.003 3.782.768 5.149 2.144 1.367 1.376 2.136 3.243 2.139 5.192 0 .433-.038.865-.111 1.292h.01z"/>
        <path fill="url(#prefix__f)" d="M74.9 255.628l-.746 4.252-.64 3.701-1.518 8.92-.607 3.702-1.535 8.925-.64 3.696L65.398 311h-39.69l-3.85-22.176-.64-3.696-1.518-8.925-.646-3.702-1.58-8.92-.628-3.701-.735-4.247c-.697-4.001 1.95-7.816 5.914-8.52.417-.075.84-.112 1.263-.113h44.424c1.93-.003 3.782.768 5.149 2.144 1.367 1.376 2.136 3.243 2.139 5.192 0 .433-.038.865-.111 1.292h.01z"/>
        <path fill="url(#prefix__g)" d="M358 49.7V52H33v-2.29c0-3.9 1.614-7.642 4.494-10.4 2.88-2.76 6.789-4.31 10.864-4.31h294.256c4.073-.001 7.98 1.546 10.862 4.302 2.88 2.756 4.5 6.494 4.502 10.393l.022.005z"/>
        <circle cx="49.5" cy="41.5" r="3.5" fill="url(#prefix__h)"/>
        <circle cx="60.5" cy="41.5" r="3.5" fill="url(#prefix__i)"/>
        <circle cx="72.5" cy="41.5" r="3.5" fill="url(#prefix__j)"/>
        <path fill="url(#prefix__k)" d="M232 125.142v63.716c-.01 4.495-3.653 8.136-8.149 8.142H160.15c-4.496-.006-8.14-3.647-8.149-8.142v-63.716c0-2.16.858-4.23 2.385-5.757 1.527-1.527 3.599-2.385 5.758-2.385h63.708c2.16-.001 4.234.856 5.762 2.383 1.528 1.527 2.387 3.599 2.387 5.76z"/>
        <path fill="#00AEEE" d="M197.997 150.206c.07 2.358-1.18 4.563-3.255 5.741-.526.299-.845.854-.835 1.452v13.695c0 .505-.204.99-.567 1.348-.363.357-.856.558-1.37.558h-.945c-.514 0-1.006-.2-1.37-.558-.363-.358-.567-.843-.567-1.348v-13.695c.006-.598-.312-1.153-.835-1.457-2.712-1.54-3.924-4.765-2.882-7.672 1.042-2.907 4.042-4.67 7.135-4.192 3.094.477 5.402 3.058 5.491 6.14v-.012zM74 260L73.364 264 17.636 264 17 260zM71 273L70.365 277 18.646 277 18 273zM69 285L68.368 289 21.632 289 21 285z"/>
        <path fill="#1D2741" d="M274.346 170.218c-2.61-3.642-6.553-6.175-10.753-7.761-.957-.36-2.036-.67-2.97-.266-.657.36-1.207.886-1.597 1.524-2.025 2.772-4.133 5.766-4.327 9.192-.29 5.21 3.854 10.76 1.195 15.256-.74 1.252-1.919 2.184-2.78 3.359-1.625 2.217-1.998 5.122-1.78 7.86.26 3.288.683 7.684-2.432 8.804-.935.273-1.928.287-2.87.039-2.731-.555-5.257-1.857-7.932-2.633-2.676-.776-5.763-.96-8.088.554-.206 2.96 2.347 5.427 5.034 6.708 2.687 1.28 5.713 1.862 8.177 3.531 3.727 2.517 5.562 7.207 5.446 11.714-.117 4.506-1.886 8.775-4.144 12.661-1.052 1.807-2.226 3.609-2.66 5.655-.85 4.08 1.441 8.088 3.639 11.641.645 1.037 1.351 2.134 2.475 2.622.951.322 1.968.404 2.96.239l39.015-3.327c1.113-.094 2.409-.316 2.887-1.319.212-.616.212-1.285 0-1.901-1.273-5.444-5.284-9.923-6.708-15.334-.657-2.522-.729-5.155-.801-7.761-.29-10.743-.651-21.592-2.948-32.153-1.152-5.26-3.989-10.178-5.112-15.306-1.046-4.784.389-8.975-2.926-13.598z" opacity=".18"/>
        <path fill="url(#prefix__l)" d="M214 117h-6.9v-9.145c-.014-5.145-2.808-9.893-7.33-12.454-4.523-2.562-10.087-2.548-14.597.035-4.51 2.584-7.28 7.345-7.267 12.49V117H171v-9.326c.298-11.527 9.873-20.708 21.56-20.674 11.686.034 21.206 9.272 21.434 20.8L214 117z"/>
        <path fill="#3F3D56" d="M358.215 303l5.785 5.633-8.326 8.449-10.459.918c-.637-1.867.18-3.926 1.912-4.816 1.923-1.06 4.017-1.758 6.182-2.062l-.226-4.36 5.132-3.762zM293.135 303l.865 6.642L274.088 318s-2.488-3.605.061-6.737c2.55-3.131 9.58-5.331 9.58-5.331l1.241-2.89 8.165-.042z"/>
        <path fill="#00AEEE" d="M297.787 195s-7.175 5.19-7.93 13.245c-.754 8.055-1.117 10.882-1.117 10.882l-12.572-.995-.168 6.802s16.68 5.966 19.239 4.95c2.56-1.018 5.761-5.507 5.761-5.507L297.787 195z"/>
        <path fill="url(#prefix__m)" d="M297.787 195s-7.175 5.19-7.93 13.245c-.754 8.055-1.117 10.882-1.117 10.882l-12.572-.995-.168 6.802s16.68 5.966 19.239 4.95c2.56-1.018 5.761-5.507 5.761-5.507L297.787 195z"/>
        <path fill="#00AEEE" d="M302.51 238.423s-26.292 21.417-26.505 28.718c-.213 7.301 6.461 35.859 6.461 35.859l10.193-.055.297-30.01s21.504-7.412 23.843-11.89c2.338-4.48 7.295-26.338-14.288-22.622z"/>
        <path fill="url(#prefix__n)" d="M302.51 238.423s-26.292 21.417-26.505 28.718c-.213 7.301 6.461 35.859 6.461 35.859l10.193-.055.297-30.01s21.504-7.412 23.843-11.89c2.338-4.48 7.295-26.338-14.288-22.622z"/>
        <path fill="#00AEEE" d="M303 238.055s1.57 32.812 11.678 43.42c10.109 10.608 35.98 26.525 35.98 26.525l7.342-4.622-24.837-26.309s3.591-29.532-.657-34.708c-4.248-5.177-29.506-4.306-29.506-4.306z"/>
        <path fill="url(#prefix__o)" d="M303 238.055s1.57 32.812 11.678 43.42c10.109 10.608 35.98 26.525 35.98 26.525l7.342-4.622-24.837-26.309s3.591-29.532-.657-34.708c-4.248-5.177-29.506-4.306-29.506-4.306z"/>
        <path fill="#00AEEE" d="M302.998 238.396L294 200.673s5.043-14.385 25.028-9.755c19.985 4.63 14.192 51.787 14.192 51.787s-22.434 7.372-30.222-4.309z"/>
        <path fill="url(#prefix__p)" d="M302.998 238.396L294 200.673s5.043-14.385 25.028-9.755c19.985 4.63 14.192 51.787 14.192 51.787s-22.434 7.372-30.222-4.309z"/>
        <path fill="#00AEEE" d="M317.957 196.91s-1.184-6.308 5.165-4.624c6.35 1.684 16.233 23.424 15.868 26.447-.365 3.023-31.254 4.267-31.254 4.267l-.736-7.25 16.238-2.739s-5.962-10.307-5.281-16.102z"/>
        <path fill="url(#prefix__q)" d="M317.957 196.91s-1.184-6.308 5.165-4.624c6.35 1.684 16.233 23.424 15.868 26.447-.365 3.023-31.254 4.267-31.254 4.267l-.736-7.25 16.238-2.739s-5.962-10.307-5.281-16.102z"/>
        <path fill="url(#prefix__r)" d="M314.46 183.06c-.765 1.607-2.066 2.887-3.672 3.61-.27.094-.531.21-.783.345-.113.072-.215.16-.305.26-.556.632-.167 1.57 0 2.384.31 1.853-.744 3.752-2.266 4.814-.855.558-1.792.972-2.777 1.226-1.383.367-2.87.452-3.92-.05-1.666-.798-1.5-3.391-1.866-4.979-1.211-5.153-2.272-10.436-1.722-15.764.294-2.825 1.072-5.707 2.743-8 1.672-2.295 4.332-3.956 7.142-3.905 2.81.051 5.476 1.853 7.48 3.955.701.702 1.293 1.508 1.755 2.39 1.3 2.65.611 5.82-.11 8.69-.368 1.738-.939 3.424-1.7 5.023z"/>
        <path fill="#00AEEE" d="M317.76 170.668s-8.41 0-13.497 3.018c-4.536 2.682-5.786 8.41-6.168 8.313-.858-.2-3.656-5.717-2.478-6.935 1.177-1.218.246-1.223.246-1.223s-1.35-2.287-.672-6.392c.556-2.998 1.317-5.954 2.276-8.844 0 0 .353-1.36 5.445 0 5.092 1.36 13.677 5.517 14.153 7.203.477 1.687.084 2.458.084 2.458s1.397 1.047.612 2.402z"/>
        <path fill="url(#prefix__s)" d="M317.76 170.668s-8.41 0-13.497 3.018c-4.536 2.682-5.786 8.41-6.168 8.313-.858-.2-3.656-5.717-2.478-6.935 1.177-1.218.246-1.223.246-1.223s-1.35-2.287-.672-6.392c.556-2.998 1.317-5.954 2.276-8.844 0 0 .353-1.36 5.445 0 5.092 1.36 13.677 5.517 14.153 7.203.477 1.687.084 2.458.084 2.458s1.397 1.047.612 2.402z"/>
        <path fill="#00AEEE" d="M303.529 174c2.91.668 5.867 1.137 8.847 1.406 2.677.163 4.607-.525 4.623-.645.033-.268-.868 4.26-.868 4.26l-2.03.677c-.783.262-1.618.356-2.444.273L299 178.72s2.157-3.672 4.529-4.721z"/>
        <path fill="url(#prefix__t)" d="M303.529 174c2.91.668 5.867 1.137 8.847 1.406 2.677.163 4.607-.525 4.623-.645.033-.268-.868 4.26-.868 4.26l-2.03.677c-.783.262-1.618.356-2.444.273L299 178.72s2.157-3.672 4.529-4.721z"/>
        <path fill="#FFF" d="M308.717 175.099c.427-.147.88-.13 1.299.049.286.064.545.251.734.528.108.21.183.445.22.691.04.14.04.292 0 .431-.111.164-.286.236-.454.187-.775.008-1.543-.177-2.26-.545-.591-.382-.04-1.122.46-1.341zM315.336 176.206c.228-.147.53-.221.834-.203.198-.009.392.043.534.142.101.096.18.203.234.317.048.07.069.147.06.225-.028.09-.13.16-.258.173-.478.137-1 .174-1.506.108-.432-.09-.186-.567.102-.762z"/>
        <path fill="url(#prefix__u)" d="M307.48 193.763c-.829.563-1.738.98-2.693 1.237-.802-.96-1.315-2.15-1.475-3.42-.157-.88-.253-1.772-.286-2.668-.098-.778.082-1.567.507-2.211.569-.559 1.352-.803 2.116-.662.76.092 1.492.371 2.25.456.647.075 1.422-.239 2.101-.279-.11.073-.209.161-.296.262-.539.639-.162 1.585 0 2.406.274 1.892-.749 3.807-2.224 4.88z"/>
        <path fill="#00AEEE" d="M271.422 214.493c-.31-.257-.68-.425-1.071-.487-.404-.052-.781.22-.879.633 0 .285.092.561.263.783l.723 1.181c.09.123.145.27.155.426 0 .391-.536.47-.916.42-2.356-.314-4.707-1.075-7.058-.75-.181.005-.354.078-.488.207-.14.218-.115.51.06.7.176.178.394.307.631.374 1.317.504 2.669.9 4.044 1.187-.156.403-.664.475-1.071.492-1.139.045-2.272.18-3.39.403-.638.123-1.42.46-1.425 1.12.037.452.345.83.766.94.414.101.844.117 1.264.045 1.474-.13 2.957-.09 4.423.117-1.585.19-3.09.829-4.354 1.847-.115.084-.21.195-.278.325-.145.324.128.716.455.828.339.072.69.051 1.018-.062 1.464-.355 2.958-.557 4.46-.604-.905.436-1.748 1.001-2.506 1.679-.23.185-.413.425-.535.7-.128.284-.072.621.139.845.277.178.62.208.921.078 1.784-.504 3.358-1.713 5.184-1.992.954-.152 2.057-.09 2.72-.823.285-.363.483-.79.58-1.248.395-1.439 1.215-4.478.385-5.877-.327-.56-1.12-1.019-1.607-1.433-.836-.732-1.708-1.417-2.613-2.054zM302.428 212.493c-.31-.257-.68-.425-1.071-.487-.404-.052-.782.22-.88.633 0 .285.093.561.263.783l.724 1.181c.09.123.145.27.155.426-.027.391-.536.47-.916.42-2.358-.314-4.71-1.08-7.063-.75-.18.003-.354.074-.488.2-.143.22-.118.516.06.706.176.179.394.308.631.375 1.318.504 2.67.9 4.046 1.187-.155.403-.664.47-1.071.487-1.14.049-2.273.185-3.393.408-.637.123-1.42.453-1.425 1.12.037.452.345.83.766.94.415.101.845.116 1.265.045 1.475-.13 2.96-.09 4.426.117-1.584.19-3.089.829-4.351 1.847-.117.082-.214.191-.284.319-.093.357.105.725.445.828.338.077.69.058 1.018-.056 1.465-.358 2.96-.56 4.464-.604-.906.436-1.75 1.001-2.508 1.679-.23.185-.413.425-.536.7-.124.284-.069.62.14.845.279.178.623.208.927.078 1.779-.504 3.354-1.713 5.182-1.992.953-.152 2.057-.09 2.722-.823.284-.363.482-.79.579-1.248.402-1.439 1.216-4.478.385-5.882-.326-.56-1.12-1.014-1.607-1.428-.833-.732-1.703-1.417-2.605-2.054z"/>
        <path fill="url(#prefix__v)" d="M271.422 214.493c-.31-.257-.68-.425-1.071-.487-.404-.052-.781.22-.879.633 0 .285.092.561.263.783l.723 1.181c.09.123.145.27.155.426 0 .391-.536.47-.916.42-2.356-.314-4.707-1.075-7.058-.75-.181.005-.354.078-.488.207-.14.218-.115.51.06.7.176.178.394.307.631.374 1.317.504 2.669.9 4.044 1.187-.156.403-.664.475-1.071.492-1.139.045-2.272.18-3.39.403-.638.123-1.42.46-1.425 1.12.037.452.345.83.766.94.414.101.844.117 1.264.045 1.474-.13 2.957-.09 4.423.117-1.585.19-3.09.829-4.354 1.847-.115.084-.21.195-.278.325-.145.324.128.716.455.828.339.072.69.051 1.018-.062 1.464-.355 2.958-.557 4.46-.604-.905.436-1.748 1.001-2.506 1.679-.23.185-.413.425-.535.7-.128.284-.072.621.139.845.277.178.62.208.921.078 1.784-.504 3.358-1.713 5.184-1.992.954-.152 2.057-.09 2.72-.823.285-.363.483-.79.58-1.248.395-1.439 1.215-4.478.385-5.877-.327-.56-1.12-1.019-1.607-1.433-.836-.732-1.708-1.417-2.613-2.054z"/>
        <path fill="url(#prefix__w)" d="M302.428 212.493c-.31-.257-.68-.425-1.071-.487-.404-.052-.782.22-.88.633 0 .285.093.561.263.783l.724 1.181c.09.123.145.27.155.426-.027.391-.536.47-.916.42-2.358-.314-4.71-1.08-7.063-.75-.18.003-.354.074-.488.2-.143.22-.118.516.06.706.176.179.394.308.631.375 1.318.504 2.67.9 4.046 1.187-.155.403-.664.47-1.071.487-1.14.049-2.273.185-3.393.408-.637.123-1.42.453-1.425 1.12.037.452.345.83.766.94.415.101.845.116 1.265.045 1.475-.13 2.96-.09 4.426.117-1.584.19-3.089.829-4.351 1.847-.117.082-.214.191-.284.319-.093.357.105.725.445.828.338.077.69.058 1.018-.056 1.465-.358 2.96-.56 4.464-.604-.906.436-1.75 1.001-2.508 1.679-.23.185-.413.425-.536.7-.124.284-.069.62.14.845.279.178.623.208.927.078 1.779-.504 3.354-1.713 5.182-1.992.953-.152 2.057-.09 2.722-.823.284-.363.482-.79.579-1.248.402-1.439 1.216-4.478.385-5.882-.326-.56-1.12-1.014-1.607-1.428-.833-.732-1.703-1.417-2.605-2.054z"/>
    </g>
</svg>
