<svg xmlns="http://www.w3.org/2000/svg" width="221" height="68" viewBox="0 0 221 68">
    <path fill="#FFFFFE" fill-rule="evenodd" d="M45 62.985l7.513-33.933s8.614-.311 12.012.59c3.397.9 5.48 4.593 5.475 7.392-.005 2.8-.156 7.513-2.199 13.932-3.97 11.38-8.69 12.17-22.801 12.02zm12.93-29.978L52 58.995s6.034.297 8.518-3.533c2.485-3.832 2.94-7.07 4.046-12.754 1.359-6.99-.351-9.874-6.633-9.7zm82.088-1.817c1.538-.582 3.871.18 3.982 2.188-.076 3.309-5.04 5.017-6.753 2.207-.941-2.05.987-4.014 2.771-4.395zM136.864 40c1.71.05 3.42.042 5.136.037-1.588 7.631-3.24 15.251-4.76 22.9-1.745.074-3.494.068-5.24.055 1.619-7.668 3.131-15.353 4.864-22.992zm-43.29 2.934c2.165-2.108 5.31-3.623 8.344-2.598 1.362.323 2.069 1.611 2.629 2.778 1.783-2.234 4.703-3.456 7.54-3.03 1.546.149 3.413.827 3.818 2.527.279 1.36-.119 2.726-.392 4.05-1.197 5.427-2.385 10.848-3.557 16.276-1.79.012-3.574.018-5.358.006 1.117-5.217 2.314-10.417 3.396-15.636.161-1.102.53-2.743-.827-3.24-1.278-.317-2.777-.197-3.788.732-.743.909-1.053 2.077-1.32 3.198-1.077 4.983-2.177 9.968-3.264 14.946-1.785.012-3.569.006-5.359-.006 1.113-5.008 2.2-10.015 3.301-15.024.213-1.162.553-2.547-.327-3.516-1.986-1.246-4.954-.121-5.519 2.21-1.468 5.308-2.331 10.77-3.681 16.103-1.522.581-3.515.083-5.21.233 1.648-7.536 3.289-15.078 4.948-22.614l5.197.007-.57 2.598zm-17.015-2.41c2.788-.774 6.158-.875 8.545.979 1.799 1.61 2.021 4.24 1.848 6.49-.475 4.086-1.421 8.398-4.2 11.6-2.607 3.115-7.23 4.135-11.044 2.89-1.997-.662-3.35-2.593-3.573-4.625-.456-3.185.311-6.4 1.301-9.421 1.127-3.429 3.484-6.81 7.123-7.912zm4.336 5.116c.556 2.423-1.184 10.11-3.048 12.27-1.324 1.532-4.66 1.564-4.816-.642-.293-4.127 1.514-12.007 4.577-13.06 2.196-.752 3.083.72 3.287 1.432zm35.493 3.148c1.023-3.545 2.854-7.729 6.865-8.568 2.367-.734 4.736.449 6.113 2.376l.473-2.252c1.719.012 3.442.016 5.161.016-1.636 7.417-3.302 14.833-4.884 22.262-1.731.053-3.468.053-5.204.035.19-.815.384-1.63.55-2.452-1.277.921-2.34 2.298-3.975 2.57-2.322.675-5.44-.148-6.125-2.736-.917-3.74.087-7.61 1.026-11.251zm11.505-3.128c.567 2.604-1.207 10.87-3.106 13.19-1.35 1.646-4.853 1.75-4.786-1.184.088-3.863 1.435-12.3 4.556-13.43 2.238-.809 3.128.658 3.336 1.424zm18.527-16.637l5.256.006c1.672 8.292 3.422 16.576 4.554 24.957-.125-8.483 2.53-16.623 4.064-24.878 1.9-.12 3.8-.079 5.706-.108-2.32 11.332-4.98 22.584-7.324 33.904-1.738.06-3.482.164-5.22.025-.522-.646-.425-1.594-.648-2.36-1.373-7.831-3.451-15.573-3.78-23.555-.594 8.784-2.662 17.37-4.376 25.986-1.882-.036-3.77-.036-5.652-.036 2.47-11.313 4.956-22.626 7.42-33.94zM194.868 40c1.708.044 3.418.036 5.132.036-1.581 7.628-3.25 15.243-4.751 22.895-1.75.08-3.5.08-5.249.054 1.634-7.657 3.13-15.35 4.868-22.985zm3.179-8.82c1.542-.568 3.86.22 3.953 2.227-.123 3.296-5.016 4.966-6.75 2.195-.953-2.077 1.005-4.041 2.797-4.422zm-21.135 9.571c1.803.653 2.59 2.508 3.22 4.15 1.94-4.838 8.446-5.934 12.868-3.991-.25 1.342-.524 2.679-.934 3.98-2.346-1.696-7.143-1.536-7.583 1.895.88 2.67 4.035 3.516 5.648 5.648 1.37 1.631.995 4.021.16 5.811-2.375 4.517-8.808 6.03-13.183 3.569.322-1.272.608-2.55.852-3.84 1.898.853 4.095 1.69 6.148.818 1.85-.506 2.952-3.279 1.363-4.634-1.786-1.642-3.922-2.89-5.536-4.716-.167.96-.315 1.925-.47 2.891-3.995.095-7.993-.012-11.982.06-.237 1.966-.874 4.103.066 5.994.75 1.33 2.625 1.288 3.82.618 1.489-.736 1.982-2.42 2.519-3.844 1.56 0 3.118.012 4.678.022-.85 2.491-2.125 5.07-4.518 6.436-2.726 1.572-6.268 1.837-9.177.618-2.502-1.112-3.03-4.198-2.834-6.618.434-4.02 1.358-8.16 3.702-11.547 2.363-3.467 7.28-4.875 11.173-3.32zM168 48.994l6.726.006c.282-1.418.716-4.935-.888-5.744-1.601-.808-4.48.086-5.838 5.738zm30.389-.207c1.021-3.545 2.852-7.728 6.862-8.567 2.37-.734 4.738.449 6.114 2.376l.473-2.252c1.718.012 3.443.018 5.162.018-1.636 7.415-3.301 14.832-4.884 22.26-1.731.052-3.468.052-5.205.034.19-.815.384-1.63.55-2.451-1.275.92-2.34 2.298-3.975 2.57-2.32.674-5.44-.148-6.125-2.737-.915-3.74.089-7.61 1.028-11.25zm12.504-3.127c.565 2.604-1.206 10.869-3.107 13.19-1.348 1.646-4.852 1.752-4.785-1.184.087-3.863 1.435-12.3 4.556-13.43 2.237-.809 3.127.658 3.336 1.424zM37.74 8.99L53 4 39.052 64.998V65L3 44.465l32.033-18.393 4.02 38.925L37.74 8.99zM51.972.174c1.814-.597 3.77.389 4.366 2.205.23.7.224 1.42.026 2.078l-4.799 21.19c1.903.047 3.763.115 5.674.089 2.785-.039 5.57-.079 8.505.627 2.422.584 4.413 2.034 5.817 3.92 1.406 1.889 2.236 4.255 2.313 6.616l.03.804c2.332-1.039 5.09-1.406 7.597-1.115 1.718.198 3.392.736 4.885 1.743.648-.945 1.74-1.524 2.913-1.5 2.137.007 1.483-.009 5.174-.009.641 0 1.245.175 1.759.48.285-.111.575-.214.868-.305 1.922-.594 3.986-.701 6.06-.064.943.232 1.723.643 2.383 1.17.508-.294 1.037-.551 1.582-.77 1.868-.744 3.92-1.023 5.94-.722l.107.018c1.272.157 2.689.568 3.886 1.354.408.268.789.575 1.132.924 1.188-.989 2.603-1.733 4.295-2.11 1.881-.54 3.747-.386 5.43.268l.437.184c.542-.298 1.166-.453 1.81-.423l2.464.012c1.592.004-.586-.008 1.941-.01-.092-.151-.168-.308-.234-.468-.181-.408-.31-.82-.393-1.237l-.014.003c-.336-1.688.1-3.245.987-4.537l.14-.189c.718-.974 1.723-1.777 2.802-2.307.56-.274 1.126-.48 1.67-.606.494-.146 1.014-.235 1.539-.266.89-.052 1.828.07 2.704.363.634-1.218 1.95-1.963 3.346-1.848l2.35.004 2.63.002c1.699 0 3.112 1.23 3.395 2.85l.54 2.639.376 1.84c.325-1.469.639-2.944.92-4.439.296-1.587 1.635-2.715 3.175-2.813 1.304-.082 2.73-.088 4.157-.094l1.728-.014c1.903-.023 3.464 1.503 3.487 3.406.003.25-.021.494-.067.73-.525 2.549-1.076 5.126-1.64 7.718.453-.192.917-.359 1.388-.5 2.716-.817 5.72-.77 8.412.285.976.358 1.78.885 2.455 1.522 1.244-.924 2.67-1.586 4.178-1.996 2.419-.657 5.094-.654 7.532-.041-.086-.146-.16-.295-.224-.447-.198-.437-.334-.863-.416-1.272-.336-1.687.11-3.245 1.004-4.544.73-1.057 1.793-1.923 2.936-2.483.533-.263 1.077-.462 1.61-.591.52-.16 1.083-.254 1.665-.283 1.206-.058 2.49.198 3.585.763 1.303.67 2.374 1.758 2.893 3.26.05.148.09.295.12.442.093.364.152.739.17 1.124.008.152.005.3-.007.448-.091 1.46-.648 2.732-1.498 3.76 1.05-.32 2.148-.477 3.235-.457 1.177.022 2.346.25 3.44.699.498-.27 1.063-.42 1.649-.42v-.005c1.743 0 3.487.006 5.23.001 1.911 0 3.478 1.537 3.478 3.448 0 .307-.04.606-.117.89-.379 1.751-1.47 6.692-2.552 11.596-.506 2.293-1.007 4.551-2.377 10.877-.369 1.704-1.935 2.841-3.625 2.718l-2.356.012c-3.455.011-.787.019-2.615.019-.577 0-1.12-.141-1.598-.392-.316.126-.638.238-.964.332-2.12.616-4.4.57-6.594-.477-.11-.053-.217-.11-.32-.172-.162-.09-.317-.181-.468-.277-.592.544-1.369.874-2.196.906-.89.038-1.848.057-2.847.065-.934.006-1.86.001-2.78-.011-.862-.011-1.644-.336-2.243-.866-.675.3-1.373.545-2.087.732-3.168.834-6.673.562-9.601-.962l-.39-.22-.012-.007c-1.752.948-3.724 1.502-5.713 1.637-2.107.145-4.266-.187-6.238-1.023l-.079-.034-.003.008c-.482-.217-.922-.472-1.323-.76-.643.896-1.694 1.447-2.823 1.44l-.634.023c-1.615.06-3.232.122-4.84-.004-1.112-.087-2.057-.69-2.624-1.556-.76-1.06-.891-2.01-1.02-2.952l-.045-.325c-.037-.121-.064-.244-.086-.367l-.009.002-.404-2.21c-.224 1.083-.463 2.231-.959 4.709-.351 1.765-1.987 2.947-3.743 2.765-.847-.015-1.674-.023-2.49-.026-1.844-.009-.487.01-2.814.01-.367 0-.718-.059-1.05-.163-.276.07-.563.107-.856.106-.847.032-1.757.047-2.701.054-.918.006-1.834.001-2.746-.005-.325-.002-.641-.048-.939-.134-.3.076-.615.108-.936.099-.804.021-1.647.033-2.513.038-.9.005-1.794 0-2.684-.01-.508-.004-.99-.117-1.422-.319-.389.15-.81.274-1.273.366-1.825.483-3.94.396-5.753-.312-.56-.218-1.092-.49-1.586-.82-.698.742-1.708 1.158-2.765 1.081l-2.457.01c-.907.002-1.813 0-2.714-.005-1.225-.005-2.297-.648-2.904-1.612-.675 1.08-1.912 1.722-3.216 1.613-.805.005-1.61.006-2.418.005l-2.718-.012c-1.43-.007-2.655-.883-3.17-2.128-.44.88-1.23 1.518-2.147 1.78-1.526.512-2.95.44-4.368.368-.534-.028-1.068-.056-1.535-.014-1.228.106-2.362-.444-3.055-1.359-.97.53-2.005.937-3.071 1.22-2.631.696-5.481.635-8.055-.216-.112-.037-.22-.078-.325-.126-1.526-.581-2.798-1.585-3.745-2.825-.256-.335-.488-.688-.695-1.057-1.174 1.053-2.518 1.94-4.06 2.593l-.082.034.001.006c-4.62 1.819-9.328 1.774-13.94 1.73-.713-.006-1.425-.013-2.11-.013l-3.244-.001-.032.05-.037.057-.075.11-.004.002-.04.054-.12.15-.005.01-.008.007-.037.043-.084.091-.03.034-.016.015-.01.01-.05.048-.048.045-.012.012-.037.034-.006.005-.035.032-.011.008-.035.032-.016.012-.049.04-.004.003-.054.041-.035.027-.028.021-.03.022-.018.012-.032.023-.012.008-.035.023-.023.015-.011.006-.06.038-.017.011-.05.03-.005.002-.045.026-.01.005-.039.022-.01.006-.043.023-.008.003-.05.026-.018.008-.004.003-.063.029-.01.004-.013.007-.06.026-.01.004-.06.025-.022.009-.057.022-.012.004-.014.005-.068.024-.013.005-.065.02-.012.004-.066.02-.017.005-.061.017-.02.004-.154.037-.009.002-.061.012h-.005l-.043.008-.05.009-.024.003-.165.022-.077.006-.012.001h-.003l-.062.005-.024.001h-.014l-.039.002-.036.001h-.005l-.072.002-.097-.002h-.015l-.072-.003h-.003l-.076-.004-.007-.002-.066-.006-.02-.001h-.003l-.066-.008-.022-.002-.037-.006-.036-.004-.005-.002-.032-.005-.036-.006h-.004l-.032-.006-.037-.006-.006-.001-.03-.007-.035-.007-.04-.008-.032-.01-.035-.007-.014-.003-.022-.006-.035-.01-.024-.005-.011-.003-.037-.011-.052-.017-.016-.005-.033-.01-.013-.005-.023-.008-.033-.012-.034-.01-.034-.015-.034-.012-.033-.014-.034-.013-.032-.014-.037-.016-.03-.013-.033-.014-.01-.006-.047-.022-.008-.004-.032-.016-.024-.012-.008-.005-.032-.017-.031-.017-.032-.016-.215-.13L1.73 46.97C.08 46.023-.49 43.917.459 42.267c.313-.545.752-.972 1.26-1.265l-.003-.006 31.782-18.42.106-.06 1.173-.668-.31-13.325c-.03-1.55.968-2.881 2.368-3.343l-.003-.01L51.972.175z"/>
</svg>
