<svg xmlns="http://www.w3.org/2000/svg" width="22" height="22" viewBox="0 0 22 22">
    <g fill="none" fill-rule="evenodd">
        <path stroke="#FFF" stroke-width="2" d="M21.14 17.531c-.744-.75-2.547-1.844-3.421-2.285-1.14-.574-1.233-.621-2.128.044-.598.444-.995.84-1.693.692-.7-.15-2.218-.99-3.548-2.316-1.33-1.325-2.22-2.888-2.369-3.585-.15-.696.254-1.088.694-1.687.62-.844.572-.984.043-2.124-.413-.885-1.54-2.671-2.292-3.412-.806-.796-.806-.655-1.325-.44-.422.178-.827.395-1.21.646-.75.498-1.167.912-1.458 1.534-.29.622-.422 2.08 1.082 4.812 1.503 2.73 2.558 4.127 4.74 6.304 2.184 2.177 3.862 3.347 6.316 4.723 3.036 1.7 4.2 1.37 4.824 1.079.624-.291 1.04-.703 1.539-1.453.252-.383.469-.788.647-1.21.216-.517.357-.517-.44-1.322z" transform="translate(-1 -1)"/>
        <path fill-rule="nonzero" d="M0 0H24V24H0z" transform="translate(-1 -1)"/>
    </g>
</svg>
