<svg xmlns="http://www.w3.org/2000/svg" width="22" height="22" viewBox="0 0 22 22">
    <g fill="none" fill-rule="evenodd" transform="translate(-1 -1)">
        <path stroke="#FFF" stroke-linecap="round" stroke-width="2" d="M4.1 17.813c.057-.206-.066-.491-.184-.697-.037-.062-.076-.121-.12-.178-1.008-1.53-1.546-3.323-1.546-5.156C2.233 6.52 6.596 2.25 11.992 2.25c4.705 0 8.633 3.26 9.55 7.587.138.641.208 1.295.208 1.952 0 5.269-4.195 9.606-9.59 9.606-.858 0-2.016-.216-2.647-.393-.632-.176-1.262-.41-1.425-.474-.166-.064-.343-.096-.521-.097-.195 0-.388.038-.567.114l-3.18 1.148c-.07.03-.143.05-.218.057-.12 0-.236-.049-.32-.135-.084-.085-.13-.201-.13-.322.005-.052.014-.104.029-.154l.92-3.326z"/>
        <circle cx="7.5" cy="12" r="1.5" fill="#FFF" fill-rule="nonzero"/>
        <circle cx="12" cy="12" r="1.5" fill="#FFF" fill-rule="nonzero"/>
        <circle cx="16.5" cy="12" r="1.5" fill="#FFF" fill-rule="nonzero"/>
        <path fill-rule="nonzero" d="M0 0H24V24H0z"/>
    </g>
</svg>
