<svg xmlns="http://www.w3.org/2000/svg" width="52" height="52" viewBox="0 0 52 52">
    <g fill="none">
        <path fill="#7A7A7A" d="M46.403 9.882c-4.661-3.73-10.454-5.76-16.424-5.757-7.037 0-13.61 2.711-18.524 7.634-4.748 4.764-7.35 11.054-7.33 17.706 0 4.877 1.432 9.647 4.118 13.719l.022.03c.032.048.066.095.1.142l.084.12.025.047c.13.231.231.513.142.797l-2.128 7.7c-.085.287-.131.583-.138.882-.003 1.635 1.318 2.965 2.953 2.973.416-.014.825-.103 1.208-.265l7.796-2.813.098-.039c.212-.089.44-.134.67-.132.212 0 .422.04.62.115.187.073 1.886.723 3.68 1.225 1.49.415 4.59 1.04 7.019 1.04 6.89 0 13.324-2.67 18.116-7.516 4.75-4.81 7.365-11.204 7.365-18.011 0-1.747-.184-3.49-.552-5.198-1.195-5.616-4.362-10.731-8.92-14.399zM18.91 33.696c-2.042 0-3.697-1.655-3.697-3.696 0-2.041 1.655-3.696 3.697-3.696 2.041 0 3.696 1.655 3.696 3.696 0 2.041-1.655 3.696-3.696 3.696zm11.089 0c-2.041 0-3.696-1.655-3.696-3.696 0-2.041 1.655-3.696 3.696-3.696 2.041 0 3.696 1.655 3.696 3.696 0 2.041-1.655 3.696-3.696 3.696zm11.09 0c-2.042 0-3.697-1.655-3.697-3.696 0-2.041 1.655-3.696 3.696-3.696 2.042 0 3.697 1.655 3.697 3.696 0 2.041-1.655 3.696-3.697 3.696z" transform="translate(-4 -4)"/>
        <path d="M0 0H59V59H0z" transform="translate(-4 -4)"/>
    </g>
</svg>
