<svg xmlns="http://www.w3.org/2000/svg" width="63" height="15" viewBox="0 0 63 15">
    <path fill="#FFF" d="M2.3 14.2c.5 0 1.225-.125 1.525-.325.15-.3.225-.95.225-1.25 0-.3-.075-.95-.225-1.225-.325-.2-1.025-.35-1.525-.35-.55 0-1.2.15-1.55.35-.15.275-.225.925-.225 1.225 0 .3.075.95.225 1.25.35.2 1 .325 1.55.325zm11.875.05c1.667 0 3.092-.358 4.275-1.075 1.183-.717 2-1.708 2.45-2.975l-4.375-2.15c-.533 1.2-1.325 1.8-2.375 1.8-.667 0-1.22-.233-1.662-.7-.442-.467-.663-1.133-.663-2 0-.85.22-1.508.663-1.975.441-.467.995-.7 1.662-.7 1.05 0 1.842.6 2.375 1.8l4.375-2.15c-.45-1.267-1.267-2.258-2.45-2.975C17.267.433 15.842.075 14.175.075c-1.55 0-2.938.3-4.163.9-1.225.6-2.183 1.438-2.875 2.512C6.447 4.563 6.1 5.784 6.1 7.15s.346 2.592 1.038 3.675c.691 1.083 1.65 1.925 2.874 2.525 1.226.6 2.613.9 4.163.9zm15.125 0c1.533 0 2.904-.304 4.113-.912 1.208-.609 2.15-1.45 2.825-2.525.675-1.075 1.012-2.296 1.012-3.663s-.337-2.588-1.013-3.663c-.675-1.075-1.616-1.912-2.825-2.512-1.208-.6-2.579-.9-4.112-.9-1.517 0-2.88.3-4.088.9-1.208.6-2.154 1.438-2.837 2.512-.683 1.075-1.025 2.296-1.025 3.663s.342 2.588 1.025 3.662c.683 1.075 1.63 1.917 2.837 2.526 1.209.608 2.571.912 4.088.912zm0-4.4c-.65 0-1.183-.237-1.6-.713-.417-.475-.625-1.137-.625-1.987 0-.85.208-1.508.625-1.975.417-.467.95-.7 1.6-.7.65 0 1.183.233 1.6.7.417.467.625 1.125.625 1.975 0 .85-.208 1.512-.625 1.987-.417.476-.95.713-1.6.713zM44.675 14V7.325c0-.867.163-1.5.488-1.9.325-.4.754-.6 1.287-.6 1.017 0 1.525.783 1.525 2.35V14h5.65V7.325c0-.867.163-1.5.487-1.9.325-.4.755-.6 1.288-.6 1.017 0 1.525.783 1.525 2.35V14h5.65V6.2c0-2.05-.496-3.583-1.488-4.6C60.096.583 58.776.075 57.125.075c-.933 0-1.792.18-2.575.538-.783.358-1.45.87-2 1.537-.467-.7-1.067-1.22-1.8-1.563-.733-.341-1.558-.512-2.475-.512-1.567 0-2.858.508-3.875 1.525V.325h-5.375V14h5.65z"/>
</svg>
