<svg xmlns="http://www.w3.org/2000/svg" width="23" height="18" viewBox="0 0 23 18">
    <path fill="#FFF" d="M1.34 17.398c.366 0 .68-.13.94-.392.262-.261.393-.574.393-.94 0-.372-.13-.689-.392-.95-.262-.262-.575-.392-.94-.392-.373 0-.688.13-.945.392-.258.261-.387.578-.387.95 0 .366.129.679.387.94.257.262.572.392.945.392zM6.326 3.262c.344 0 .64-.124.886-.37.247-.248.371-.543.371-.887s-.124-.637-.37-.881C6.963.881 6.668.759 6.324.759s-.637.122-.88.365c-.244.244-.366.537-.366.88 0 .345.122.64.365.887.244.247.537.37.881.37zm.763 14.126V5.604H5.573v11.784h1.515zm9.002.01c.96 0 1.86-.184 2.702-.553.841-.369 1.616-.95 2.325-1.745.645-1.075 1.031-2.13 1.16-3.17V.77h-1.504v6.574c-.637-.78-1.35-1.363-2.137-1.746-.788-.383-1.651-.575-2.59-.575-1.66 0-3.082.606-4.264 1.816-1.181 1.21-1.772 2.678-1.772 4.404 0 1.697.594 3.148 1.783 4.35 1.189 1.204 2.621 1.805 4.297 1.805zm.129-1.45c-.852 0-1.635-.21-2.347-.628-.713-.42-1.28-1.001-1.703-1.746-.423-.745-.634-1.54-.634-2.385 0-.83.213-1.627.64-2.39.425-.762.998-1.353 1.718-1.772.72-.42 1.488-.629 2.304-.629.831 0 1.619.21 2.364.629.744.419 1.317.988 1.718 1.708s.602 1.523.602 2.411c0 1.368-.451 2.51-1.354 3.427-.902.917-2.005 1.375-3.308 1.375z"/>
</svg>
