<svg xmlns="http://www.w3.org/2000/svg" width="30" height="26" viewBox="0 0 30 26">
    <g fill="none">
        <path fill="#AAA" d="M29.787 14.19l-.01-.004L3.084 3.115c-.456-.19-.977-.14-1.388.135-.434.284-.695.768-.696 1.287v7.08c0 .72.512 1.34 1.22 1.474l14.558 2.692c.118.022.204.125.204.245s-.086.223-.204.246L2.221 18.966C1.513 19.1 1 19.718 1 20.437v7.082c0 .496.248.958.662 1.231.245.163.532.25.826.25.205 0 .407-.041.595-.12L29.775 17.87l.012-.005c.734-.316 1.21-1.039 1.21-1.838 0-.8-.476-1.522-1.21-1.837z" transform="translate(-1 -3)"/>
        <path d="M0 0H32V32H0z" transform="translate(-1 -3)"/>
    </g>
</svg>
