<svg xmlns="http://www.w3.org/2000/svg" width="181" height="89" viewBox="0 0 181 89">
    <path fill="#4A4A4A" d="M12.625 88V75.5H.125V88h12.5zm26.172.879c2.018 0 4.59-.195 7.715-.586V78.137c-1.888.325-3.288.488-4.2.488-2.083 0-3.466-.586-4.15-1.758-.683-1.172-1.025-3.01-1.025-5.517V34.875h9.375V25.5h-9.375V3.625h-12.5V25.5h-6.25v9.375h6.25v38.867c.065 5.078 1.212 8.87 3.442 11.377 2.23 2.507 5.803 3.76 10.718 3.76zm34.18 0c6.217 0 10.823-1.71 13.818-5.127 2.995-3.418 4.639-8.464 4.932-15.137v-2.49H79.324v2.637c-.032 1.53-.13 2.8-.293 3.808-.163 1.01-.447 2.019-.854 3.028s-1.034 1.766-1.88 2.27c-.846.505-1.92.757-3.223.757-1.041 0-1.945-.244-2.71-.732-.765-.489-1.359-1.156-1.782-2.002-.423-.847-.781-1.831-1.074-2.954-.293-1.124-.472-2.304-.537-3.54-.065-1.237-.122-2.499-.171-3.785-.049-1.286-.04-2.53.024-3.735V56.75h25v-1.465c0-3.092-.09-5.827-.268-8.203-.18-2.376-.497-4.793-.952-7.25-.456-2.459-1.132-4.55-2.027-6.275-.895-1.726-2.018-3.296-3.369-4.712-1.35-1.416-3.044-2.474-5.078-3.174-2.035-.7-4.387-1.05-7.056-1.05-2.93 0-5.493.464-7.69 1.392-2.197.927-3.972 2.156-5.322 3.686-1.351 1.53-2.45 3.483-3.296 5.86-.847 2.376-1.44 4.825-1.783 7.348-.341 2.523-.561 5.412-.659 8.667-.097 2.735-.097 5.469 0 8.203.065 3.483.252 6.535.562 9.156.309 2.62.87 5.24 1.684 7.86.814 2.621 1.88 4.77 3.199 6.446 1.318 1.677 3.092 3.036 5.322 4.077 2.23 1.042 4.858 1.563 7.886 1.563zm6.25-38.379H66.824v-3.418c.033-1.725.13-3.206.293-4.443.163-1.237.448-2.499.855-3.785.407-1.285 1.041-2.27 1.904-2.954.863-.683 1.929-1.025 3.198-1.025 1.237 0 2.279.326 3.125.977.847.65 1.473 1.595 1.88 2.832.407 1.237.692 2.474.855 3.71.162 1.238.26 2.686.293 4.346v3.76zm37.255 38.379c3.288 0 6.128-.497 8.52-1.49 2.394-.992 4.314-2.433 5.763-4.32 1.448-1.889 2.53-4.094 3.247-6.617.716-2.523 1.123-5.428 1.22-8.716v-1.611h-12.5v1.514c0 1.367-.032 2.498-.097 3.393-.065.895-.22 1.864-.464 2.906-.244 1.041-.578 1.871-1.001 2.49-.423.618-1.034 1.14-1.831 1.562-.798.423-1.75.635-2.857.635-1.204 0-2.23-.342-3.076-1.025-.846-.684-1.489-1.652-1.928-2.906-.44-1.253-.757-2.555-.953-3.906-.195-1.35-.325-2.921-.39-4.712-.13-8.138-.13-14.225 0-18.262.032-1.888.146-3.556.342-5.004.195-1.449.512-2.857.952-4.224.44-1.367 1.082-2.417 1.928-3.15.847-.732 1.888-1.098 3.125-1.098s2.287.317 3.15.952c.862.635 1.497 1.538 1.904 2.71.407 1.172.7 2.344.879 3.516.18 1.172.285 2.539.317 4.101v1.758h12.5v-1.66c-.195-6.966-1.725-12.223-4.59-15.772-2.864-3.548-7.584-5.322-14.16-5.322-3.027 0-5.656.505-7.885 1.514-2.23 1.009-4.004 2.32-5.323 3.93-1.318 1.612-2.392 3.679-3.222 6.202-.83 2.522-1.4 5.053-1.71 7.592-.308 2.54-.496 5.47-.56 8.79-.098 2.734-.098 5.452 0 8.154.064 3.353.252 6.29.56 8.813.31 2.523.872 5.046 1.685 7.569.814 2.522 1.888 4.598 3.223 6.225 1.335 1.628 3.117 2.946 5.347 3.955 2.23 1.01 4.858 1.514 7.885 1.514zM155.496 88V38.537c2.93-2.441 5.664-3.662 8.203-3.662 1.79 0 2.954.505 3.491 1.514.538 1.009.806 2.588.806 4.736V88h12.5V34.729c0-2.833-.83-5.225-2.49-7.178-1.66-1.953-3.825-2.93-6.494-2.93-2.344 0-4.55.399-6.616 1.196-2.068.798-3.687 1.644-4.859 2.54-1.172.895-2.685 2.189-4.54 3.881V.5h-12.5V88h12.5z"/>
</svg>
