<svg xmlns="http://www.w3.org/2000/svg" width="37" height="19" viewBox="0 0 37 19">
    <path fill="#FFF" d="M3.125 18v-2.5h-2.5V18h2.5zm5.234.176c.404 0 .918-.04 1.543-.117v-2.032c-.377.065-.657.098-.84.098-.416 0-.693-.117-.83-.352-.136-.234-.205-.602-.205-1.103V7.375h1.875V5.5H8.027V1.125h-2.5V5.5h-1.25v1.875h1.25v7.773c.013 1.016.243 1.775.689 2.276.446.501 1.16.752 2.143.752zm6.836 0c1.244 0 2.165-.342 2.764-1.026.599-.683.928-1.692.986-3.027v-.498h-2.48v.527c-.007.306-.026.56-.059.762-.032.202-.09.404-.17.606-.082.201-.207.353-.377.454-.169.1-.384.151-.644.151-.208 0-.39-.049-.542-.146-.153-.098-.272-.232-.357-.4-.084-.17-.156-.367-.214-.592-.059-.224-.095-.46-.108-.708-.013-.247-.024-.5-.034-.757-.01-.257-.008-.506.005-.747V11.75h5v-.293c0-.618-.018-1.165-.054-1.64-.036-.476-.1-.96-.19-1.45-.091-.492-.227-.91-.406-1.256-.179-.345-.403-.659-.673-.942-.27-.283-.61-.495-1.016-.635-.407-.14-.877-.21-1.411-.21-.586 0-1.099.093-1.538.279-.44.185-.795.43-1.065.737-.27.306-.49.696-.659 1.172-.17.475-.288.965-.356 1.47-.069.504-.113 1.082-.132 1.733-.02.547-.02 1.094 0 1.64.013.697.05 1.307.112 1.832.062.524.174 1.048.337 1.572.163.524.376.954.64 1.289.263.335.618.607 1.064.815.446.209.972.313 1.577.313zm1.25-7.676h-2.48v-.684c.006-.345.026-.64.058-.888.033-.248.09-.5.171-.757.082-.257.209-.454.381-.59.173-.138.386-.206.64-.206.247 0 .456.065.625.195.17.13.294.32.376.567.081.247.138.495.17.742.033.247.053.537.06.869v.752zm7.451 7.676c.658 0 1.226-.1 1.705-.298.478-.199.862-.487 1.152-.864.29-.378.506-.819.65-1.324.143-.504.224-1.085.243-1.743v-.322h-2.5v.303c0 .273-.006.5-.019.678-.013.18-.044.373-.093.582-.049.208-.115.374-.2.498-.085.123-.207.227-.366.312-.16.085-.35.127-.572.127-.24 0-.445-.068-.615-.205-.169-.137-.298-.33-.385-.581-.088-.25-.152-.511-.19-.781-.04-.27-.066-.585-.079-.943-.026-1.627-.026-2.845 0-3.652.006-.378.03-.711.068-1.001.04-.29.103-.571.19-.845.089-.273.217-.483.386-.63.17-.146.378-.22.625-.22.248 0 .458.064.63.191.173.127.3.308.381.542.082.234.14.469.176.703.036.235.057.508.063.82v.352h2.5v-.332c-.039-1.393-.345-2.445-.917-3.154-.573-.71-1.517-1.065-2.833-1.065-.605 0-1.13.101-1.577.303-.446.202-.8.464-1.064.786s-.479.736-.645 1.24c-.166.505-.28 1.011-.341 1.519-.062.508-.1 1.094-.113 1.758-.02.547-.02 1.09 0 1.63.013.671.05 1.259.113 1.763.061.505.174 1.01.336 1.514.163.504.378.92.645 1.245.267.326.623.59 1.07.791.445.202.971.303 1.576.303zM31.7 18V8.107c.586-.488 1.133-.732 1.64-.732.359 0 .592.1.7.303.107.202.16.517.16.947V18h2.5V7.346c0-.567-.166-1.045-.498-1.436-.332-.39-.765-.586-1.299-.586-.468 0-.91.08-1.323.24-.413.159-.737.328-.972.507-.234.18-.537.438-.908.777V.5h-2.5V18h2.5z"/>
</svg>
